<?xml version="1.0" encoding="utf-8"?>
<!-- Generator: Adobe Illustrator 13.0.2, SVG Export Plug-In . SVG Version: 6.00 Build 14948)  -->
<!DOCTYPE svg PUBLIC "-//W3C//DTD SVG 1.1//EN" "http://www.w3.org/Graphics/SVG/1.1/DTD/svg11.dtd">
<svg version="1.1" id="Layer_1" xmlns="http://www.w3.org/2000/svg" xmlns:xlink="http://www.w3.org/1999/xlink" x="0px" y="0px"
	 width="360.092px" height="360.001px" viewBox="0 0 360.092 360.001" enable-background="new 0 0 360.092 360.001"
	 xml:space="preserve">
<g>
	<path fill-rule="evenodd" clip-rule="evenodd" fill="#FFFFFF" d="M0.251,0c119.756,0,239.53,0,359.28,0
		c1.119,119.003,0.161,240.071,0.48,360.001c-120.004,0-239.993,0-360.001,0c0-119.756,0-239.531,0-359.281
		C-0.01,0.379-0.028,0.041,0.251,0z M224.411,16.08c-10.37-9.57-25.937-16.584-45.359-14.16
		c-18.783,2.344-33.756,12.267-37.441,30.48c-6.201-7.496-13.156-14.058-22.56-18.24C108.87,9.632,96.44,9.687,85.69,14.4
		c-8.908,3.907-16.066,10.545-22.08,18.72c-7.221,9.818-12.838,21.602-11.52,37.2c-19.275,0.541-29.396,12.189-37.2,25.44
		c-7.968,13.528-13.278,31.254-12,51.84c0.888,14.288,6.388,24.937,14.64,32.4c-10.521,13.887-11.045,38.993-5.039,56.88
		c5.596,16.668,16.355,32.594,29.76,40.319c6.41,3.695,18.412,5.865,24.24,0.24c-4.943,24.881,7.656,42.057,21.359,52.08
		c6.677,4.884,16.146,9.863,26.641,11.28c17.047,2.303,30.739-4.66,33.84-18.96c6.422,22.6,20.148,38.184,50.16,36
		c11.109-0.809,21.363-5.966,29.52-11.521c11.948-8.135,21.349-18.962,21.841-37.199c4.222,4.5,8.803,8.659,16.319,9.359
		c11.692,1.09,18.385-2.713,25.44-7.2c18.927-12.035,34.735-37.364,26.16-67.68c4.737-0.463,8.549-1.851,12.479-3.12
		c18.118-10.007,27.36-33.063,27.36-63.84c0-14.678-1.405-27.514-5.52-40.08c-4.302-13.136-11.39-29.151-27.36-26.88
		c3.624-11.425,4.139-25.141,2.16-36.96c-1.946-11.627-7.297-20.694-13.681-28.08c-6.017-6.962-14.702-13.156-25.199-16.32
		c-10.396-3.134-25.081-3.488-34.561,2.4c-5.783,4.217-10.491,9.509-12.96,17.04C238.049,35.302,232.841,23.86,224.411,16.08z"/>
	<path fill-rule="evenodd" clip-rule="evenodd" fill="#FFFFFF" d="M220.571,56.16c4.899,0.061,9.193,0.726,13.92,0.96
		c-0.112,2.719,0.502,6.596,0.72,9.6c-4.304,0.462-9.396-0.364-13.92-0.48C221.214,62.897,221.183,59.489,220.571,56.16z"/>
	<path fill-rule="evenodd" clip-rule="evenodd" fill="#FFFFFF" d="M92.411,65.52c-1.633,3.087-3.439,6.001-5.04,9.12
		c-9.154-3.313-22.12-0.572-25.681,6.72c-0.477,0.978-1.227,3.895-0.959,5.28c0.689,3.585,7.362,3.787,11.52,4.56
		c7.078,1.316,13.181,3.813,15.6,8.88c3.586,7.509,1.188,19.531-3.6,25.44c-8.395,10.363-27.92,13.952-41.28,6
		c1.288-3.592,2.663-7.097,3.601-11.04c10.498,7.114,30.303,4.516,29.52-9.36c-0.663-11.748-20.471-5.507-24.72-13.92
		c-1-1.979-1.03-4.296-0.72-6.48C52.873,75.038,72.032,59.778,92.411,65.52z"/>
	<path fill-rule="evenodd" clip-rule="evenodd" fill="#FFFFFF" d="M296.411,68.4c8.129,0.133,10.79,8.599,12.96,15.36
		c2.922,9.102,4.934,18.844,6.48,28.08c1.351,8.062,1.457,17.873,11.76,16.56c0.485,2.708,1.162,6.25,1.2,9.12
		c-22.87,2.997-21.613-20.883-24.48-37.92c-0.869-5.164-1.667-10.685-2.88-15.6C299.982,78.045,298.201,72.263,296.411,68.4z"/>
	<path fill-rule="evenodd" clip-rule="evenodd" fill="#FFFFFF" d="M210.971,76.08c-0.526,2.71-2.156,6.078-2.88,9.36
		c-4.707-1.69-8.405-3.89-14.399-3.84c-10.28,0.086-14.803,7.437-15.601,15.36c-1.22,12.12,3.022,23.229,13.92,24.48
		c6.866,0.788,12.909-1.974,18.24-4.32c-0.032,3.511,1.104,7.792,1.2,10.56c-8.585,6.785-26.351,6.625-36,0.48
		c-7.409-4.717-11.677-14.098-12-23.28c-0.341-9.687,1.108-19.825,8.399-26.16c4.33-3.762,10.246-6.425,18.001-6.96
		C198.466,71.166,205.339,73.157,210.971,76.08z"/>
	<path fill-rule="evenodd" clip-rule="evenodd" fill="#FFFFFF" d="M126.731,73.44c17.415-1.229,27.401,9.4,27.6,25.68
		c0.128,10.502-2.859,20.048-9.12,26.16c-9.833,9.6-32.316,11.109-41.76,0.24c-9.044-10.41-7.098-30.121-0.48-39.84
		C107.899,78.441,115.265,74.249,126.731,73.44z M121.211,83.76c-10.694,3.863-14.063,26.372-6.479,34.8
		c6.433,7.15,18.139,3.041,21.84-3.12c1.438-2.394,2.824-7.052,3.119-10.8c0.902-11.417-1.646-21.776-12.719-21.6
		C124.216,83.084,122.831,83.175,121.211,83.76z"/>
	<path fill-rule="evenodd" clip-rule="evenodd" fill="#FFFFFF" d="M222.011,73.92c4.813,0.068,9.273,0.488,13.921,0.72
		c0.748,18.085,1.832,37.437,2.159,57.36c-4.511-0.449-9.761-0.159-14.64-0.24C223.395,112.677,222.307,91.478,222.011,73.92z"/>
	<path fill-rule="evenodd" clip-rule="evenodd" fill="#FFFFFF" d="M296.892,134.16c-2.54,0.218-6.482-0.236-9.36-0.48
		c-0.34-1.864-1.543-4.391-2.16-6.72c-4.522,4.61-10.383,7.692-17.76,7.2c-13.193-0.88-20.37-12.554-17.76-24
		c2.729-11.965,18.351-12.23,31.92-11.76c-0.077-4.919-0.999-10.177-6-12.24c-6.079-2.508-13.552-0.167-19.681,1.2
		c-1.772-2.708-2.961-5.999-4.319-9.12c16.757-4.869,35.665-0.733,40.319,12.96c2.055,6.042,2.27,13.688,2.881,21.12
		C295.574,119.65,296.509,127.11,296.892,134.16z M264.011,110.64c-3.079,5.118-0.306,11.752,4.32,13.2
		c5.813,1.819,13.817-1.029,15.12-6.72c0.794-3.466-0.947-7.265-0.96-10.8C274.214,106.754,267.105,105.498,264.011,110.64z"/>
	<path fill-rule="evenodd" clip-rule="evenodd" fill="#FFFFFF" d="M167.291,165.6c27.173,1.936,61.716-5.112,77.04,8.4
		c11.809,10.412,10.405,36.123-0.96,46.32c-3.082,2.766-6.686,4.45-10.8,6.24c8.761,13.639,15.613,31.267,22.8,47.28
		c-6.619,0.74-13.826,0.893-20.64,1.439c-7.156-14.524-12.855-30.504-20.641-44.399c-7.665-0.035-17.232,0.025-25.68,0
		c-1.103,14.257-0.173,30.547-0.48,45.6c-6.8,0-13.6,0-20.399,0C167.502,240.586,167.114,202.361,167.291,165.6z M188.171,182.16
		c0,11.2,0,22.4,0,33.601c13.046-0.474,29.46,2.396,38.641-3.12c6.17-3.708,9.34-14.676,5.52-22.8
		c-5.57-11.846-26.882-7.596-43.92-8.4C188.132,181.48,188.15,181.819,188.171,182.16z"/>
	<path fill-rule="evenodd" clip-rule="evenodd" fill="#FFFFFF" d="M143.291,166.08c-0.516,36.933-0.04,75.083,1.44,109.681
		c-5.649,0.288-12.359-0.44-18.48-0.48c-1.25-26.405-2.078-54.351-1.68-83.04c-8.756,24.853-18.775,49.694-26.881,74.4
		c-4.839-0.681-10.268-0.771-14.879-1.68c-11.447-22.873-21.164-47.477-29.521-73.44c0.583,26.755,2.727,52.675,7.2,75.84
		c-4.184-0.696-7.771-1.988-11.521-3.12c-7.286-29.594-9.029-56.382-8.88-96.72c5.844-0.317,11.836-0.485,18-0.48
		c9.17,26.831,19.23,52.769,30.721,77.28c9.367-25.854,19.584-52.66,30.239-78C127.392,166.501,134.991,165.941,143.291,166.08z"/>
	<path fill-rule="evenodd" clip-rule="evenodd" fill="#FFFFFF" d="M273.131,166.08c14.366,1.037,29.007-0.955,40.801,1.44
		c13.829,2.808,20.602,13.022,19.439,31.2c-0.61,9.562-3.513,18.707-8.64,24.24c-7.494,8.088-20.538,9.849-35.04,9.84
		c-1.356,13.358-2.158,24.378-3.84,37.68c-5.528,0.872-11.268,1.532-17.04,2.16C272.311,241.018,273.217,204.072,273.131,166.08z
		 M291.131,182.16c-0.021,12.707-0.396,25.488-0.96,36.96c10.352-0.398,19.783-0.21,25.44-5.04c6.999-5.976,8.655-23.235,0.96-29.52
		c-6.063-4.952-14.813-2.529-25.2-3.12C291.092,181.48,291.11,181.819,291.131,182.16z"/>
</g>
</svg>
