<?xml version="1.0" encoding="utf-8"?>
<!-- Generator: Adobe Illustrator 13.0.2, SVG Export Plug-In . SVG Version: 6.00 Build 14948)  -->
<!DOCTYPE svg PUBLIC "-//W3C//DTD SVG 1.1//EN" "http://www.w3.org/Graphics/SVG/1.1/DTD/svg11.dtd">
<svg version="1.1" id="Layer_1" xmlns="http://www.w3.org/2000/svg" xmlns:xlink="http://www.w3.org/1999/xlink" x="0px" y="0px"
	 width="354.911px" height="356.608px" viewBox="0 0 354.911 356.608" enable-background="new 0 0 354.911 356.608"
	 xml:space="preserve">
<path fill-rule="evenodd" clip-rule="evenodd" fill="#0098DB" d="M237.791,46.323c2.469-7.531,7.177-12.823,12.96-17.04
	c9.479-5.888,24.165-5.534,34.561-2.4c10.497,3.164,19.183,9.357,25.199,16.32c6.384,7.386,11.734,16.453,13.681,28.08
	c1.979,11.819,1.464,25.535-2.16,36.96c15.971-2.271,23.059,13.744,27.36,26.88c4.114,12.566,5.52,25.402,5.52,40.081
	c0,30.777-9.242,53.833-27.36,63.84c-3.931,1.27-7.742,2.657-12.479,3.12c8.575,30.315-7.233,55.645-26.16,67.68
	c-7.056,4.487-13.748,8.29-25.44,7.2c-7.517-0.7-12.098-4.859-16.319-9.359c-0.492,18.237-9.893,29.064-21.841,37.199
	c-8.156,5.555-18.41,10.712-29.52,11.521c-30.012,2.184-43.738-13.4-50.16-36c-3.101,14.3-16.792,21.263-33.84,18.96
	c-10.495-1.417-19.964-6.396-26.64-11.28c-13.704-10.023-26.303-27.199-21.36-52.08c-5.827,5.625-17.83,3.455-24.24-0.24
	c-13.404-7.726-24.165-23.651-29.76-40.319c-6.005-17.888-5.481-42.993,5.04-56.881c-8.253-7.463-13.752-18.112-14.64-32.4
	c-1.279-20.586,4.033-38.312,12-51.84c7.804-13.25,17.924-24.899,37.2-25.44c-1.319-15.599,4.299-27.382,11.52-37.2
	c6.013-8.175,13.171-14.813,22.08-18.72c10.75-4.713,23.179-4.768,33.36-0.24c9.403,4.182,16.358,10.744,22.56,18.24
	c3.686-18.213,18.658-28.136,37.44-30.48c19.423-2.424,34.99,4.59,45.36,14.16C230.14,22.423,235.348,33.865,237.791,46.323z
	 M218.59,64.803c4.524,0.116,9.616,0.942,13.92,0.48c-0.218-3.004-0.832-6.881-0.72-9.6c-4.727-0.234-9.021-0.899-13.92-0.96
	C218.482,58.052,218.513,61.46,218.59,64.803z M47.95,89.283c-0.31,2.184-0.28,4.501,0.72,6.48
	c4.249,8.413,24.057,2.172,24.72,13.92c0.783,13.876-19.021,16.474-29.52,9.36c-0.937,3.943-2.312,7.448-3.6,11.04
	c13.36,7.951,32.886,4.363,41.28-6c4.787-5.909,7.186-17.931,3.6-25.44c-2.419-5.066-8.522-7.564-15.6-8.88
	c-4.157-0.773-10.831-0.975-11.52-4.56c-0.267-1.385,0.482-4.302,0.96-5.28c3.561-7.292,16.526-10.033,25.68-6.72
	c1.601-3.119,3.407-6.033,5.04-9.12C69.332,58.341,50.172,73.601,47.95,89.283z M298.75,82.563c1.213,4.916,2.011,10.436,2.88,15.6
	c2.867,17.037,1.61,40.917,24.48,37.92c-0.038-2.871-0.715-6.412-1.2-9.12c-10.303,1.313-10.409-8.498-11.76-16.56
	c-1.547-9.236-3.559-18.979-6.48-28.08c-2.17-6.761-4.831-15.227-12.96-15.36C295.5,70.826,297.282,76.608,298.75,82.563z
	 M187.151,70.323c-7.755,0.535-13.67,3.198-18,6.96c-7.292,6.335-8.74,16.474-8.4,26.16c0.323,9.182,4.591,18.563,12,23.28
	c9.649,6.145,27.415,6.305,36-0.48c-0.096-2.768-1.232-7.049-1.2-10.56c-5.331,2.347-11.374,5.108-18.24,4.32
	c-10.897-1.251-15.14-12.36-13.919-24.48c0.797-7.923,5.32-15.274,15.6-15.36c5.994-0.05,9.692,2.149,14.399,3.84
	c0.724-3.282,2.354-6.649,2.88-9.36C202.638,71.72,195.765,69.729,187.151,70.323z M100.27,84.243
	c-6.617,9.719-8.564,29.43,0.48,39.84c9.443,10.87,31.926,9.36,41.76-0.24c6.261-6.112,9.248-15.658,9.12-26.16
	c-0.198-16.28-10.185-26.909-27.6-25.68C112.563,72.812,105.199,77.004,100.27,84.243z M220.75,130.323
	c4.879,0.081,10.129-0.209,14.64,0.24c-0.327-19.923-1.411-39.275-2.159-57.36c-4.647-0.232-9.108-0.652-13.921-0.72
	C219.606,90.041,220.694,111.24,220.75,130.323z M292.271,110.883c-0.611-7.433-0.826-15.078-2.881-21.12
	c-4.654-13.693-23.563-17.829-40.319-12.96c1.358,3.121,2.547,6.413,4.319,9.12c6.129-1.367,13.602-3.708,19.681-1.2
	c5.001,2.063,5.923,7.321,6,12.24c-13.569-0.47-29.191-0.205-31.92,11.76c-2.61,11.446,4.566,23.12,17.76,24
	c7.377,0.492,13.237-2.589,17.76-7.2c0.617,2.329,1.82,4.855,2.16,6.72c2.878,0.244,6.82,0.698,9.36,0.48
	C293.808,125.673,292.874,118.213,292.271,110.883z M164.831,275.043c6.8,0,13.6,0,20.399,0c0.308-15.053-0.622-31.343,0.48-45.6
	c8.447,0.025,18.015-0.035,25.68,0c7.785,13.896,13.484,29.875,20.641,44.399c6.813-0.547,14.021-0.699,20.64-1.439
	c-7.187-16.014-14.039-33.642-22.8-47.28c4.114-1.79,7.718-3.475,10.8-6.24c11.365-10.197,12.769-35.908,0.96-46.32
	c-15.324-13.512-49.867-6.465-77.04-8.4C164.414,200.924,164.801,239.149,164.831,275.043z M116.35,164.883
	c-10.655,25.34-20.872,52.146-30.24,78c-11.49-24.511-21.551-50.449-30.72-77.279c-6.165-0.006-12.157,0.162-18,0.479
	c-0.149,40.338,1.594,67.126,8.88,96.72c3.749,1.132,7.337,2.424,11.52,3.12c-4.473-23.165-6.616-49.085-7.2-75.84
	c8.356,25.964,18.073,50.567,29.52,73.44c4.612,0.908,10.041,0.999,14.88,1.68c8.105-24.706,18.124-49.548,26.88-74.4
	c-0.398,28.689,0.431,56.635,1.68,83.04c6.121,0.04,12.831,0.769,18.48,0.48c-1.48-34.598-1.956-72.748-1.44-109.681
	C132.291,164.504,124.691,165.064,116.35,164.883z M266.111,271.204c5.772-0.628,11.512-1.288,17.04-2.16
	c1.682-13.302,2.483-24.321,3.84-37.68c14.502,0.009,27.546-1.752,35.04-9.84c5.127-5.533,8.029-14.679,8.64-24.24
	c1.162-18.178-5.61-28.393-19.439-31.2c-11.794-2.395-26.435-0.403-40.801-1.44C270.516,202.635,269.61,239.581,266.111,271.204z"/>
<path fill-rule="evenodd" clip-rule="evenodd" fill="#0098DB" d="M124.271,81.603c11.073-0.176,13.622,10.183,12.72,21.6
	c-0.296,3.748-1.682,8.407-3.12,10.8c-3.701,6.16-15.407,10.27-21.84,3.12c-7.583-8.428-4.214-30.937,6.48-34.8
	C120.131,81.738,121.515,81.647,124.271,81.603z"/>
<path fill-rule="evenodd" clip-rule="evenodd" fill="#0098DB" d="M279.791,104.883c0.013,3.535,1.754,7.333,0.96,10.8
	c-1.303,5.691-9.307,8.539-15.12,6.72c-4.626-1.448-7.399-8.083-4.32-13.2C264.405,104.061,271.513,105.317,279.791,104.883z"/>
<path fill-rule="evenodd" clip-rule="evenodd" fill="#0098DB" d="M185.71,180.003c17.038,0.805,38.35-3.446,43.92,8.4
	c3.82,8.124,0.65,19.092-5.52,22.8c-9.181,5.516-25.595,2.646-38.641,3.12c0-11.2,0-22.4,0-33.601
	C185.45,180.382,185.431,180.043,185.71,180.003z"/>
<path fill-rule="evenodd" clip-rule="evenodd" fill="#0098DB" d="M288.67,180.003c10.387,0.591,19.137-1.831,25.2,3.12
	c7.695,6.284,6.039,23.544-0.96,29.52c-5.657,4.83-15.089,4.642-25.44,5.04c0.564-11.472,0.939-24.253,0.96-36.96
	C288.41,180.382,288.391,180.043,288.67,180.003z"/>
</svg>
