<?xml version="1.0" encoding="UTF-8" standalone="no"?>
<svg id="svg2" xmlns:rdf="http://www.w3.org/1999/02/22-rdf-syntax-ns#" xmlns="http://www.w3.org/2000/svg" viewBox="0 0 288 288" version="1.1" xmlns:cc="http://creativecommons.org/ns#" xmlns:dc="http://purl.org/dc/elements/1.1/">
 <defs id="defs4"></defs>
 <metadata id="metadata7">
  <rdf:RDF>
   <cc:Work rdf:about="">
    <dc:format>image/svg+xml</dc:format>
    <dc:type rdf:resource="http://purl.org/dc/dcmitype/StillImage"/>
    <dc:title/>
   </cc:Work>
  </rdf:RDF>
 </metadata>
 <g id="layer1" transform="translate(-221.71428,-79.790749)">
  <g id="g2830" transform="matrix(2,0,0,2,-369.42857,-149.48974)">
   <path id="path2844" fill="#d0eaf6" d="m225.02,385.84c-8.6554-1.3699-16.596-7.7614-22.052-17.751l-2.8386-5.1967-2.7452,3.4405c-13.243,16.596-49.464,5.2135-60.852-19.123-2.4228-5.1775-3.2711-8.5533-3.6052-14.347l-0.43685-7.5766-5.433,0.34518c-7.6504,0.48605-14.52-3.0497-22.192-11.422-16.521-18.03-22.125-43.828-13.929-64.12,2.4115-5.9702,2.4152-6.0331,0.49899-8.3995-1.0619-1.3114-3.1124-4.6386-4.5568-7.3938-2.4383-4.6511-2.6519-6.1024-2.9852-20.283-0.31663-13.47-0.10139-16.127,1.823-22.5,6.003-19.88,18.577-34.196,31.907-36.328,3.9491-0.63148,4.0918-0.78568,4.0918-4.4212,0-5.2846,3.3741-15.604,6.939-21.223,15.547-24.502,41.285-29.721,60.045-12.174,2.776,2.5967,5.2101,4.5406,5.409,4.32,0.19892-0.2207,1.3015-2.2654,2.4501-4.5438,2.4623-4.8842,8.5448-10.35,15.021-13.498,4.1379-2.0113,6.1943-2.2591,19.136-2.3062,13.803-0.0502,14.766,0.0777,20.03,2.6629,3.0417,1.4936,7.5019,4.4032,9.9115,6.4658,4.96,4.2455,11.598,13.945,12.569,18.366,0.35653,1.6232,0.94998,2.9514,1.3188,2.9513,0.36879-0.00002,1.8962-1.5361,3.3942-3.4136,3.3598-4.2109,11.571-8.2908,18.446-9.1652,6.7387-0.85711,18.206,1.6831,24.908,5.5174,9.8569,5.6395,17.001,14.153,21.449,25.561,1.9688,5.0499,2.3499,7.9003,2.4064,18,0.0369,6.6-0.26657,13.188-0.67441,14.64-0.68093,2.4246-0.45567,2.6939,2.7569,3.2966,7.2601,1.362,15.232,12.63,18.846,26.638,0.79103,3.0662,1.7393,11.391,2.1073,18.5,1.9495,37.659-5.9011,55.943-27.59,64.26-2.5675,0.98449-2.6005,1.1136-1.5913,6.2176,3.4796,17.598-9.2835,41.581-26.844,50.44-7.9916,4.032-18.17,4.7072-24.245,1.6084-5.0148-2.5584-5.1985-2.5676-5.1985-0.26101,0,1.0122-1.3703,4.5825-3.0451,7.934-3.9223,7.8493-12.711,16.023-22.201,20.647-6.4618,3.1485-8.3468,3.5849-17.254,3.9949-5.5,0.25314-12.337,0.0903-15.194-0.36186zm4.6942-83.354c0-12.122,0.35915-17.659,1.2-18.5,0.77562-0.77562,4.7878-1.2,11.345-1.2,8.6896,0,10.391,0.27201,11.861,1.896,0.94373,1.0428,4.656,8.5803,8.2494,16.75s6.9334,15.274,7.4222,15.787c0.77198,0.81056,11.918,0.90247,12.717,0.10486,0.4787-0.4779-8.5568-20.407-12.934-28.529l-4.0375-7.4907,2.2544-1.5093c1.2399-0.83011,4.3769-3.5343,6.971-6.0093,4.0018-3.818,4.9069-5.4093,5.9724-10.5,0.95115-4.5444,0.98887-7.2908,0.15545-11.32-3.1133-15.053-10.873-18.122-45.926-18.16l-18.25-0.0198v42.333c0,23.283,0.3,42.633,0.66667,43,0.36666,0.36667,3.2917,0.66667,6.5,0.66667h5.8333v-17.3zm0.60699-30.282c-0.33385-0.86998-0.60699-6.9082-0.60699-13.418,0-6.51,0.27314-12.548,0.60699-13.418,0.91288-2.3789,27.062-2.3071,32.11,0.0882,5.3419,2.5349,7.469,6.6517,7.0234,13.593-0.42693,6.6516-2.6553,10.356-7.8114,12.985-4.8434,2.4697-30.386,2.6082-31.322,0.16976zm-35.944,15.832c-0.36279-16.912-0.66041-35.831-0.66137-42.04l-0.002-11.29-8.2434,0.29044-8.2434,0.29044-3.9119,9.5c-2.1516,5.225-7.3898,18.725-11.641,30-6.2244,16.51-8.0893,20.5-9.5815,20.5-2.122,0-9.5063-16.151-18.288-40-8.1365-22.096-7.1899-20.657-13.35-20.302l-5.2414,0.30196,0.12208,16.5c0.12943,17.493,1.4612,33.05,4.0235,47,1.81,9.8538,2.5476,11.556,5.3227,12.281,2.4035,0.62852,2.5842-1.2844,1.0274-10.875-1.852-11.41-4.046-45.756-2.9903-46.812,1.5822-1.5822,2.9293,0.47988,5.9484,9.1059,3.855,11.014,11.583,30.221,16.114,40.05l3.8033,8.25h4.8797,4.8797l2.3291-6.75c6.7606-19.593,17.526-47.933,18.693-49.207,0.83859-0.91605,1.6669-1.1017,2.2306-0.5,0.49316,0.52643,1.0976,14.718,1.3431,31.537,0.24554,16.819,0.77182,31.107,1.1695,31.75,0.39919,0.6459,3.0085,1.1699,5.8254,1.1699h5.1024l-0.65961-30.75zm113.41,26.078c0.45645-0.45645,1.4002-6.8119,2.0972-14.123,0.69702-7.3113,1.5316-13.721,1.8546-14.243,0.323-0.52262,4.4585-1.3426,9.19-1.8222,5.2039-0.52746,10.374-1.7294,13.086-3.0422,7.8575-3.8038,11.95-12.559,12.004-25.681,0.037-8.9325-2.8173-14.714-8.804-17.833-3.4544-1.7995-6.1482-2.1298-19.75-2.4216-8.6625-0.18582-15.765-0.18582-15.784,0-0.0187,0.18582-0.26119,10.013-0.53889,21.838s-0.93665,28.7-1.4644,37.5c-1.4284,23.821-1.7196,21.865,3.1583,21.211,2.2666-0.30401,4.4946-0.92622,4.951-1.3827zm5.0886-38.634c-0.99605-1.2002-1.1265-4.8726-0.57562-16.204,0.70878-14.579,0.72533-14.657,3.3136-15.664,3.295-1.2811,14.435-0.22174,18.213,1.732,3.986,2.0612,5.8907,6.3248,5.8714,13.142-0.0319,11.265-5.6525,16.697-18.513,17.893-5.69,0.52883-7.2665,0.35824-8.3102-0.89924zm28.839-67.944v-2.1804c0-0.78675-0.96735-1.5742-2.1497-1.75-3.7123-0.55183-5.7474-4.7996-7.8189-16.32-1.0879-6.05-2.7146-13.475-3.615-16.5-1.7742-5.9606-5.2917-13.458-5.9876-12.762-0.23738,0.23738,0.45676,3.9051,1.5425,8.1504,1.0858,4.2453,2.6978,12.952,3.5822,19.347,1.8095,13.085,3.5964,18.478,6.8228,20.592,3.463,2.269,7.6235,3.0456,7.6235,1.4229zm-204.4-2.2226c5.364-1.593,10.585-6.179,12.343-10.842,0.58374-1.5483,1.0613-5.0107,1.0613-7.6942,0-7.2894-2.5647-9.7222-13.057-12.385l-8.4434-2.1432-0.3021-3.5923c-0.58597-6.9679,7.1766-12.429,16.691-11.742,4.2163,0.30443,6.1111-0.57204,6.1111-2.8268,0-1.3138-0.90761-1.4872-5.3724-1.0264-6.8464,0.70662-12.279,3.4899-16.99,8.7052-4.1652,4.6104-5.6372,7.76-5.6372,12.062,0,3.6448,2.5659,5.3838,10.23,6.9331,6.0537,1.2238,9.7701,4.3652,9.7701,8.2586,0,3.6905-3.118,8.5944-6.4784,10.189-3.7515,1.7802-11.096,2.0697-14.986,0.59067-2.2992-0.87414-2.7087-0.68735-3.5931,1.6387-1.1432,3.007-1.1812,2.9303,2.0944,4.2378,3.6629,1.4622,10.952,1.3026,16.559-0.36251zm167.61-2.5814c3.5921-2.58,5.2276-2.4541,7.1985,0.55395,0.90094,1.375,2.3027,2.5,3.115,2.5,1.8649,0,1.871-3.6637,0.032-19.121-2.3056-19.379-5.7573-23.3-20.555-23.35-7.8219-0.0266-8.5,0.12944-8.5,1.9563,0,1.8371,0.57744,1.9611,7.7391,1.6622,7.4626-0.31144,7.8467-0.21541,10.75,2.6879,2.177,2.177,3.0109,3.9605,3.0109,6.4396v3.4287l-7.9475,0.61287c-8.9776,0.69231-14.384,2.5651-15.972,5.5332-1.5539,2.9035-1.3298,9.7675,0.42986,13.17,3.4106,6.5953,14.147,8.6318,20.699,3.926zm-10.845-3.1156c-2.1596-1.0457-4.3641-4.7485-4.3641-7.3304,0-2.8445,2.3307-6.3938,4.8797-7.4312,3.0682-1.2486,11.309-1.6885,12.924-0.68996,1.5038,0.92938,2.5685,7.0008,1.7792,10.146-1.248,4.9726-9.771,7.944-15.219,5.306zm-102.24,2.0416c7.2745-4.016,10.858-11.239,10.868-21.91,0.0145-14.446-11.201-22.66-25.331-18.552-9.8615,2.8668-15.426,9.8351-16.385,20.518-1.3271,14.782,6.6432,23.671,20.387,22.736,3.971-0.27023,7.6936-1.2636,10.461-2.7915zm-19.349-5.7796c-3.0813-2.7532-3.2736-3.3358-3.6202-10.968-0.301-6.628,0.004-8.8258,1.7171-12.364,3.4438-7.114,11.224-9.8286,18.051-6.2981,7.7618,4.0138,8.1074,21.705,0.57121,29.242-2.8646,2.8646-3.9636,3.2969-8.3811,3.2969-4.2004,0-5.6499-0.50543-8.3384-2.9076zm73.144,6.6429c2.7506-1.4034,3.397-2.6827,2.2607-4.474-0.61732-0.97315-1.9819-0.98785-6.3645-0.0686-4.7739,1.0013-6.209,0.92388-9.948-0.53692-5.4087-2.1132-7.648-5.0974-9.1313-12.169-1.4767-7.0403,0.13913-13.756,4.3277-17.987,2.6679-2.6947,3.6045-3,9.2022-3,3.4276,0,7.1913,0.35091,8.3636,0.7798,1.5825,0.57892,2.3049,0.32812,2.8044-0.97362,2.415-6.2933-18.026-6.907-26.056-0.7823-4.6331,3.5339-6.5987,7.791-7.142,15.468-1.1506,16.26,6.601,24.955,22.262,24.971,3.85,0.004,8.0895-0.54866,9.421-1.228zm23.631-19.475c-0.40168-11.407-0.9417-21.082-1.2-21.5-0.25835-0.41802-2.0182-0.76003-3.9107-0.76003h-3.441l0.004,7.25c0.002,3.9875,0.29701,13.662,0.65555,21.5l0.65189,14.25h3.9855,3.9855l-0.73032-20.74zm-2.0517-33.76c0-1.5893-0.77012-2.0637-3.75-2.3104-3.1224-0.25842-3.75,0.007-3.75,1.5833,0,2.6887,0.99687,3.3641,4.4641,3.0244,2.2701-0.22238,3.0359-0.80188,3.0359-2.2974z"/>
   <path id="path2842" fill="#abdbf1" d="m226.99,385.82c-9.6493-1.4789-18.494-8.5929-23.868-19.198l-2.6573-5.244-3.0143,3.7574c-7.9453,9.9041-22.306,11.06-38.514,3.0991-9.1495-4.4939-16.983-12.041-21.268-20.492-2.6459-5.2177-3.3844-8.0709-3.8692-14.949-0.48387-6.865-0.88676-8.4254-2.0946-8.112-0.82249,0.2134-3.5464,0.3792-6.0531,0.36845-17.988-0.0771-38.156-29.99-37.885-56.19,0.05611-5.4183,2.3379-15.339,4.9967-21.725,1.2402-2.9786,1.109-3.463-2.3021-8.5-4.9923-7.372-6.7523-14.203-6.7523-26.209,0-12.38,1.8731-20.409,7.5025-32.159,6.637-13.853,16.184-22.503,26.841-24.318l4.1562-0.70789,0.68428-6.8987c1.4095-14.21,13.085-30.682,26.316-37.127,5.2816-2.5726,7.0776-2.9215,15-2.9134,7.929,0.008,9.6406,0.34538,14.383,2.8341,2.9605,1.5537,7.5072,4.8121,10.104,7.2408,2.5965,2.4287,4.9716,4.4159,5.278,4.4159s1.5368-2.0238,2.7342-4.4973c2.676-5.5279,8.7197-10.925,16.001-14.288,4.9261-2.2756,6.8042-2.5476,18-2.6076,11.618-0.0623,12.918,0.12753,18.43,2.6902,3.2616,1.5165,7.9363,4.4012,10.388,6.4104,5.0439,4.1331,11.638,13.747,13.352,19.466,0.63059,2.1047,1.4128,3.8097,1.7382,3.7888,0.32544-0.0209,1.7865-1.7669,3.2468-3.88,1.7252-2.4965,4.702-4.8471,8.5-6.712,5.0823-2.4955,6.954-2.8637,14.345-2.822,6.4101,0.0362,9.9172,0.60836,14.264,2.3272,11.768,4.6531,22.349,15.268,26.798,26.884,2.5863,6.7524,3.7013,22.748,2.1657,31.069-0.71036,3.8493-0.67027,5.4222,0.14443,5.6665,0.62025,0.186,2.4675,0.63499,4.1049,0.99777,6.876,1.5234,13.922,12.768,17.678,28.213,2.823,11.608,3.0784,37.282,0.47045,47.295-2.3385,8.978-6.7096,17.98-11.078,22.816-3.7275,4.1259-12.418,9.1838-15.779,9.1838-1.6962,0-1.7882,0.68211-1.1804,8.75,1.1325,15.032-3.8449,28.348-14.625,39.127-12.452,12.451-28.072,16.165-38.063,9.0514l-2.804-1.9967-1.139,4.2841c-3.5924,13.512-16.493,25.856-31.956,30.578-5.0257,1.5347-16.636,2.1642-22.719,1.2319zm2.4449-65.835c0.87271-0.55443,1.3045-5.8038,1.5-18.235l0.2745-17.456,10.744-0.28377,10.744-0.28377,1.9884,3.2697c1.0936,1.7983,4.781,9.6885,8.1942,17.534l6.2058,14.264h6.7526c3.7139,0,7.0024-0.40415,7.3076-0.8981,0.63101-1.021-7.8045-20.427-12.991-29.886-1.8952-3.4564-3.4458-6.447-3.4458-6.6458,0-0.19873,2.2252-1.7892,4.9449-3.5344,7.0061-4.4958,10.055-10.838,10.055-20.916,0-8.5438-2.3903-14.838-6.8358-18.001-5.9512-4.2336-12.236-5.1187-36.346-5.1187h-22.818v42.3c0,31.567,0.30449,42.604,1.2,43.5,1.3283,1.3283,10.595,1.6174,12.526,0.39081zm2.5245-47.291c-1.9497-2.028-1.7344-26.253,0.248-27.899,1.0811-0.89726,4.9075-1.1238,13.75-0.81405,18.077,0.63322,22.757,3.6188,22.748,14.513-0.005,6.1493-2.8528,10.916-7.7682,13.002-5.0582,2.1466-27.187,3.0612-28.978,1.1978zm-36.589,26.85c-0.36085-11.138-0.65728-30.488-0.65872-43l-0.003-22.75h-8.9306-8.9306l-8.9615,22.75c-4.9288,12.512-10.193,26.238-11.699,30.5-1.5056,4.2625-3.3052,7.75-3.999,7.75-1.7466,0-11.911-23.524-21.162-48.973-1.8938-5.2103-3.8333-9.9432-4.31-10.518-0.51703-0.62299-3.2151-0.8355-6.6871-0.52671l-5.8204,0.51763-0.32572,4c-0.5329,6.5444,1.6622,39.518,3.4406,51.683,2.3161,15.843,3.3847,19.093,6.6568,20.244,1.4791,0.52017,2.9577,0.67735,3.2858,0.34928,0.32807-0.32807-0.0934-6.1494-0.93651-12.936-2.1022-16.921-3.862-41.641-3.0572-42.943,1.0972-1.7753,2.0734,0.0668,6.7125,12.665,7.6811,20.86,16.799,41.408,18.866,42.514,1.0638,0.56931,3.7645,0.89758,6.0017,0.72948l4.0676-0.30563,6.2549-17.5c9.0061-25.197,13.947-37.5,15.061-37.5,0.59336,0,1.2559,11.848,1.698,30.367,0.4865,20.376,1.1026,30.822,1.8724,31.75,0.72373,0.87205,3.1916,1.3825,6.6837,1.3825h5.5363l-0.6561-20.25zm113.42,15.123c0.33892-0.54838,1.1793-6.9316,1.8674-14.185,0.68818-7.2533,1.7119-13.75,2.275-14.438,0.60192-0.73493,3.3802-1.25,6.7424-1.25,17.608,0,26.041-8.6512,26.807-27.5,0.47992-11.805-1.7519-16.741-9.2709-20.5-4.5803-2.2902-6.322-2.5284-20.75-2.8379l-15.75-0.33786-0.0222,12.338c-0.0235,13.064-1.4444,47.331-2.5806,62.235l-0.67829,8.8975,5.3718-0.71258c2.9545-0.39193,5.649-1.1613,5.988-1.7096zm4.6713-39.428c-0.4125-0.42791-0.75-6.9709-0.75-14.54,0-16.473,0.2313-16.905,9.0512-16.905,11.928,0,16.949,4.2961,16.949,14.503,0,11.35-4.9449,16.279-17.242,17.185-3.992,0.29417-7.5957,0.18474-8.0082-0.24316zm29.25-68.926c0-1.7923-0.67352-2.65-2.4264-3.0899-4.174-1.0476-5.5115-3.7342-7.5812-15.229-2.3907-13.277-6.2915-26.114-8.9203-29.357-2.9925-3.6912-3.3347-1.7069-1.171,6.7906,1.1016,4.3262,2.915,13.832,4.0299,21.125,1.1148,7.2925,2.7171,14.594,3.5605,16.225,1.7787,3.4396,5.8272,5.9189,9.7584,5.9762,2.2718,0.0331,2.75-0.39138,2.75-2.4409zm-201.2-2.011c6.3619-3.4647,9.2595-7.9435,9.8342-15.201,0.75119-9.4864-2.7598-13.521-13.505-15.519-8.2372-1.5319-10.321-4.0528-7.4534-9.0193,2.6332-4.5614,7.5186-6.7651,15.001-6.767,5.2943-0.001,6.2734-0.28761,6.8146-1.9926,0.34756-1.0951,0.31704-2.5006-0.0678-3.1233-0.96117-1.5552-9.3165-0.47151-14.69,1.9052-10.58,4.68-18.293,18.683-12.953,23.516,0.9826,0.88924,4.627,2.2794,8.0987,3.0893,7.7333,1.804,10.115,3.7721,10.115,8.3588,0,2.5845-0.84925,4.2942-3.4,6.845-3.0476,3.0476-3.9736,3.4-8.9349,3.4-3.0442,0-6.6543-0.42561-8.0225-0.9458-2.8726-1.0922-4.4483,0.20015-4.8743,3.9978-0.21589,1.9244,0.4149,2.6419,3.2318,3.6762,5.2408,1.9243,15.133,0.86858,20.805-2.2202zm46.264-0.11663c17.998-5.3301,21.993-34.586,5.862-42.927-4.0528-2.0958-15.435-1.8725-20.439,0.4009-4.8979,2.225-9.8253,7.6559-11.613,12.799-1.8443,5.3068-1.6523,17.081,0.33968,20.836,2.2427,4.2271,5.9556,7.4436,10.437,9.0414,5.1116,1.8225,8.8768,1.7859,15.413-0.14992zm-10.568-6.0721c-5.7298-1.4868-9.1858-9.0917-8.0438-17.7,1.2908-9.7309,5.8015-14.619,13.49-14.619,7.72,0,11.072,4.501,11.032,14.815-0.0464,12.012-7.4273,19.853-16.478,17.504zm127.77,5.6807c1.3984-1.1,3.2288-2,4.0675-2,0.83869,0,1.8105,0.9,2.1597,2,0.4497,1.4169,1.513,2,3.647,2h3.0122l-0.63101-6.75c-2.4889-26.624-3.8545-30.916-11.028-34.662-3.1042-1.6207-5.8284-2.0884-12.164-2.0884-4.4903,0-8.5009,0.3356-8.9124,0.74577-0.41156,0.41018-0.25848,1.8208,0.34018,3.1347,1.0198,2.2383,1.3896,2.3327,5.8641,1.4968,8.4638-1.5812,14.206,0.94794,15.645,6.8904,0.91352,3.7731-1.6217,5.2322-9.0944,5.234-10.811,0.002-16.128,3.878-16.164,11.781-0.0224,4.9829,2.4915,9.9464,6.1751,12.192,4.5582,2.7791,13.565,2.7926,17.083,0.0256zm-12.22-6.69c-4.5198-5.746-0.56811-12.037,8.1808-13.023,5.4048-0.6092,7.7953,1.2949,7.7953,6.2092,0,4.7235-0.83487,6.3736-4.0715,8.0473-4.6237,2.391-9.4465,1.8912-11.905-1.2337zm-47.359,6.6342c3.485-1.325,4.1621-2.3933,3.5491-5.6-0.43811-2.2918-0.78117-2.4563-3.599-1.7259-1.7131,0.44408-5.7371,0.82565-8.9423,0.84794-5.4512,0.0379-6.0438-0.19541-9.1741-3.612-3.7969-4.1441-5.1538-9.9904-4.041-17.411,1.5078-10.054,11.087-14.439,21.77-9.9638,1.277,0.53496,2.0435,0.0281,2.9431-1.9463,1.4962-3.2839,0.60501-3.9979-6.965-5.5802-12.378-2.5872-23.651,3.0834-26.728,13.445-4.0138,13.516,0.75863,26.361,11.524,31.017,4.0706,1.7604,15.61,2.071,19.665,0.52938zm24.46-18.835c-0.4693-24.222-0.55755-24.603-5.6961-24.603h-3.928l0.38106,21.5c0.2541,14.337,0.75384,21.754,1.5,22.261,0.61542,0.41855,2.6939,0.64355,4.6189,0.5l3.5-0.26099-0.37583-19.397zm-2.3108-35.353c-0.29627-3.0728-0.53148-3.25-4.3134-3.25-3.5958,0-4,0.25164-4,2.4902,0,1.9576,0.64156,2.6274,3,3.1317,5.4503,1.1655,5.646,1.0781,5.3134-2.3719z"/>
   <path id="path2840" fill="#90d0ed" d="m220.05,383.41c-6.7713-3.2089-12.54-9.1002-16.402-16.749l-3.124-6.1886-3.9156,4.5809c-5.4327,6.3557-10.559,8.1841-20.951,7.4718-21.872-1.4991-40.519-19.674-41.735-40.679l-0.45643-7.8845-5.3384,0.55097c-4.4611,0.46042-6.2408,0.10944-10.83-2.1357-11.206-5.4826-23.002-21.859-27.099-37.621-2.5666-9.8747-1.7193-25.383,1.8659-34.149l2.7341-6.6853-3.5336-4.6293c-5.2105-6.8262-7.056-13.914-7.0303-27,0.02558-13.021,1.7571-20.466,7.472-32.129,6.6733-13.618,16.376-22.287,26.813-23.956,3.8988-0.62344,4.1931-0.89249,4.1931-3.8326,0-4.7896,2.7432-14.324,5.7564-20.007,4.19-7.9028,15.752-18.852,22.843-21.632,12.889-5.0531,24.967-2.5164,37.138,7.8l6.2378,5.2874,2.1275-4.5261c2.771-5.895,10.627-12.885,17.277-15.373,23.988-8.9751,50.265,2.8617,58.227,26.229,0.86954,2.552,1.8762,4.6124,2.237,4.5788s2.0063-1.9461,3.6568-4.25c1.8696-2.6098,5.0738-5.2536,8.5-7.0133,5.1134-2.6263,6.1713-2.7997,15.078-2.4715,8.3555,0.30785,10.411,0.76244,16.092,3.5594,20.436,10.061,29.341,29.726,25.522,56.365l-0.80672,5.6281,3.5273,0.66173c12.812,2.4035,21.586,23.777,21.586,52.582,0,21.92-3.9259,35.54-13.12,45.514-4.1302,4.4807-10.337,8.4861-13.149,8.4861-0.74179,0-2.108,0.5625-3.036,1.25-1.4453,1.0707-1.5537,2.064-0.75585,6.9245,3.8893,23.694-16.295,51.235-38.59,52.654-5.3237,0.33899-6.9428,0.0107-10.926-2.2154-5.7067-3.1896-6.4236-3.2301-6.4246-0.36333-0.001,4.1828-5.6562,14.188-11.046,19.544-3.4226,3.4013-8.3597,6.7981-13.808,9.5-8.3098,4.1213-8.7127,4.2114-20.063,4.4887-10.545,0.25765-12.046,0.0637-16.747-2.1643zm10.664-79.184c0-9.5068,0.44111-17.39,1.0352-18.5,0.91066-1.7016,2.165-1.9343,10.427-1.9343,11.501,0,10.858-0.63285,19.556,19.246,3.4302,7.8396,6.7781,14.837,7.4399,15.549,1.665,1.7922,14.541,0.52862,14.541-1.427,0-1.657-7.8634-19.337-12.788-28.752l-3.6004-6.8836,2.4441-1.8234c6.887-5.1381,8.1794-6.4373,10.209-10.262,3.0275-5.7056,3.151-18.345,0.23531-24.083-5.1904-10.214-13.235-12.521-43.75-12.547l-20.75-0.0174v43.333c0,23.833,0.3,43.633,0.66667,44,0.36666,0.36667,3.7417,0.66667,7.5,0.66667h6.8333v-16.566zm0.87472-33.092c-0.22387-1.0135-0.24957-7.3552-0.0571-14.093l0.34991-12.25,13.166,0.002c15.218,0.002,19.027,1.2182,21.915,6.9984,3.225,6.4558,1.3299,14.098-4.5698,18.429-2.4649,1.8094-4.5634,2.1144-16.609,2.4138-12.736,0.31658-13.819,0.20221-14.195-1.5zm-35.803,17.157c-0.16667-17.05-0.58856-36.4-0.93753-43l-0.63449-12-8.201-0.28965c-7.6126-0.26887-8.3062-0.12538-9.6675,2-1.5718,2.454-14.249,34.286-19.729,49.54-1.8278,5.0875-3.8554,9.25-4.5058,9.25-1.3944,0-7.8718-14.536-15.819-35.5-3.1274-8.25-6.4829-17.025-7.4567-19.5l-1.7706-4.5h-6.4255-6.4255l-0.31742,11c-0.54956,19.045,3.614,58.514,6.8006,64.469,0.92472,1.7279,6.5872,3.7942,7.6059,2.7755,0.24537-0.24538-0.22865-5.1257-1.0534-10.845-3.0662-21.264-4.4838-46.247-2.5122-44.275,0.56297,0.56297,3.2172,6.85,5.8982,13.971,5.3991,14.341,15.625,38.369,16.815,39.512,0.41981,0.40311,3.1681,0.88159,6.1074,1.0633l5.3441,0.33034,8.7706-24c4.8238-13.2,9.6075-25.8,10.63-28l1.8597-4,0.27366,5.5c0.15051,3.025,0.69746,16.862,1.2154,30.748,0.51798,13.886,1.233,25.719,1.589,26.295,0.37121,0.60062,3.249,0.92126,6.7477,0.75182l6.1004-0.29546-0.30303-31zm112.19,27.25c1.2062-0.91806,1.9346-4.1711,2.7428-12.25,1.9079-19.07,0.87379-17.122,9.5068-17.905,13.873-1.2571,20.299-5.1688,24.604-14.977,2.9179-6.6473,3.2813-21.37,0.64784-26.249-2.3164-4.2919-7.1184-8.1328-11.557-9.2438-6.2639-1.5679-31.224-2.3543-32.815-1.0338-1.1014,0.91411-1.3917,5.3286-1.3994,21.281-0.009,19.537-1.3768,50.263-2.5757,57.878l-0.59046,3.75h4.8968c2.6932,0,5.6358-0.5625,6.5391-1.25zm6.0108-40.967c-0.66393-0.82819-0.80553-6.2437-0.39961-15.283l0.62872-14,7.7194-0.29151c12.92-0.48793,17.517,3.7316,16.484,15.131-0.62304,6.8711-2.7706,10.412-7.7675,12.808-4.7559,2.28-15.317,3.3166-16.665,1.6358zm29.229-67.769c0-1.7304-0.84186-2.89-2.7685-3.8134-4.0475-1.9399-5.3777-4.6584-7.1929-14.7-3.3164-18.346-7.5713-30.531-11.139-31.9-0.92715-0.35578-1.8212-0.51143-1.9867-0.34589-0.16554,0.16553,0.53514,3.4857,1.5571,7.3781,1.0219,3.8924,2.5834,11.755,3.47,17.473,3.3577,21.654,4.5571,24.659,10.975,27.493,4.5188,1.9958,7.0848,1.422,7.0848-1.5845zm-203-1.3909c8.5049-4.0107,11.613-8.9089,11.71-18.457,0.0884-8.6563-3.6839-11.811-17.71-14.81-3.2988-0.7054-4.0531-1.313-4.303-3.4657-0.70878-6.1073,8.5107-11.791,16.843-10.383,3.3412,0.5645,4.0207,0.33024,5.4736-1.8872,2.545-3.8841,1.1064-4.9432-5.9456-4.3771-11.989,0.96235-21.57,9.1317-24.019,20.48-1.0039,4.6517,2.2686,7.5882,10.194,9.1474,9.5736,1.8835,12.279,6.7492,7.6939,13.839-2.2422,3.4674-8.5032,4.8999-15.24,3.4869-6.1971-1.2998-7.1767-0.86352-7.4863,3.3345-0.28468,3.8605,2.9882,5.4391,11.29,5.4454,4.7562,0.004,7.8414-0.62758,11.5-2.3529zm165.51-1.6313,3.2678-2.3269,1.9434,2.6678c1.1789,1.6183,2.894,2.6678,4.36,2.6678,2.2775,0,2.4155-0.33087,2.3971-5.75-0.029-8.5311-2.6531-26.716-4.3204-29.94-3.6653-7.088-10.96-9.9968-23.66-9.434-5.1492,0.22817-6.2872,1.2388-5.0524,4.4867,1.0078,2.6507,1.1348,2.685,7.5063,2.0323,7.8475-0.80401,11.881,0.58448,13.574,4.6733,1.9564,4.7233,0.91747,5.6084-7.1942,6.1294-8.0368,0.51611-13.621,2.6307-15.688,5.941-1.9039,3.0486-1.6044,11.262,0.54692,14.997,3.8877,6.7497,15.45,8.7473,22.32,3.856zm-10.71-5.1882c-1.2085-0.58388-2.6535-2.3705-3.2112-3.9704-2.1109-6.0553,2.6618-10.248,10.981-9.6469,4.1548,0.30025,4.3833,0.48407,5.1364,4.1326,0.94999,4.6024-0.19302,7.1049-4.189,9.1713-3.3561,1.7355-5.6064,1.8164-8.7173,0.3134zm-101.61,3.5824c6.9945-4.3244,10.313-11.181,10.284-21.25-0.0444-15.453-7.7939-23.26-21.666-21.829-14.167,1.4622-22.164,10.61-22.268,25.475-0.1017,14.555,7.2961,21.685,21.695,20.91,5.8297-0.31404,8.1568-0.95759,11.956-3.3063zm-18.392-5.5825c-7.9705-3.8509-6.6886-24.966,1.7816-29.346,3.878-2.0054,10.142-1.4668,12.998,1.1176,4.1279,3.7356,4.8669,15.757,1.383,22.494-3.1602,6.1112-10.208,8.6118-16.162,5.7349zm72.447,6.6081c2.22-1.4378,2.9229-4.8052,1.4773-7.0775-0.55919-0.87899-2.0902-0.81674-6.2125,0.25257-3.0088,0.78046-6.962,1.1392-8.7849,0.79722-13.961-2.6192-14.279-29.408-0.37952-32.015,1.925-0.36114,5.7232-0.0868,8.4404,0.60957,4.114,1.0544,5.0893,1.0367,5.8306-0.10584,2.9767-4.588-2.0977-7.717-12.675-7.8156-7.9848-0.0745-15.476,3.5202-19.263,9.2434-2.4717,3.735-2.6828,4.8596-2.6828,14.291,0,9.7696,0.13759,10.433,3.0138,14.525,3.3485,4.7643,7.9617,7.8654,13.391,9.0018,4.9403,1.034,15.116,0.0609,17.845-1.7066zm23.144-11.661c-0.0582-7.2875-0.39574-17.3-0.75-22.25l-0.64411-9h-4.9335-4.9335l0.19052,11.5c0.10478,6.325,0.47023,16.338,0.81211,22.25l0.6216,10.75h4.8713,4.8714l-0.10589-13.25zm-2.0808-42c-0.30046-3.1162-0.50886-3.2625-5.0634-3.5548-4.6406-0.29777-4.75-0.23826-4.75,2.5833,0,3.8187,0.54672,4.2215,5.73,4.2215,4.358,0,4.3939-0.0286,4.0833-3.25z"/>
   <path id="path2838" fill="#73c4e9" d="m223.6,384.41c-8.9976-3.2153-14.936-8.8205-20.025-18.902l-3.1277-6.196-1.587,2.4892c-5.731,8.9892-14.163,12.25-26.296,10.17-11.627-1.9937-23.856-9.3383-30.406-18.26-5.2029-7.0878-7.585-14.058-7.8332-22.92-0.19142-6.8344-0.38307-7.4684-2.1591-7.1436-1.072,0.19604-3.988,0.39026-6.4801,0.4316-11.997,0.199-26.789-14.92-33.708-34.453-2.2211-6.2701-2.6086-9.077-2.6695-19.335-0.06532-11.013,0.16347-12.564,2.7805-18.857,3.1087-7.4756,3.0758-7.726-1.9194-14.58-8.598-11.797-7.7956-37.058,1.8041-56.802,5.6862-11.695,18.624-23.261,26.019-23.261,4.1044,0,5.4986-2.0366,5.9347-8.6691,0.86337-13.131,12.507-29.609,25.396-35.937,5.1752-2.541,6.9917-2.894,14.894-2.894,10.692,0,15.558,1.9588,23.972,9.6488,2.9194,2.6682,5.6976,4.8512,6.1737,4.8512s1.8892-2.2311,3.1401-4.9579c5.5357-12.067,24.136-20.031,40.18-17.205,16.127,2.8407,27.548,12.037,33.677,27.119,1.2304,3.0274,2.6457,5.6406,3.1452,5.807,0.49941,0.16648,1.9703-1.2476,3.2686-3.1424,10.133-14.788,35.323-13.891,51.822,1.8457,10.91,10.406,14.608,20.645,13.885,38.444-0.25881,6.3744-0.6492,12.194-0.86754,12.933-0.45391,1.5357,1.3873,2.7824,5.334,3.6116,3.742,0.78629,9.023,6.3169,12.142,12.717,4.6006,9.4384,6.8065,20.055,7.361,35.427,0.63474,17.597-1.057,27.354-6.7774,39.089-5.3697,11.015-10.711,15.46-22.698,18.889-0.93082,0.26627-1.0839,2.5761-0.61168,9.2289,1.0743,15.135-3.1898,26.727-13.956,37.939-8.2427,8.5839-16.663,12.757-25.743,12.757-5.5618,0-7.2623-0.4422-10.863-2.8249-2.3478-1.5537-4.386-2.6787-4.5294-2.5-0.14339,0.1787-0.80781,2.5749-1.4765,5.3249-3.0166,12.406-14.67,23.702-30.079,29.157-7.4924,2.6523-21.043,3.1333-27.118,0.9626zm-27.549-64.369c0.24834-0.4125,0.1624-20.1-0.19099-43.75l-0.64251-43h-9.4097-9.4097l-3.9712,9.5c-2.1842,5.225-7.4616,18.725-11.728,30-4.2661,11.275-8.1388,20.5-8.6061,20.5-1.5246,0-12.204-25.633-22.811-54.75l-1.7303-4.75h-6.8378c-6.6617,0-6.8535,0.0715-7.4475,2.7757-1.5296,6.9643,2.0434,50.98,5.5171,67.966,1.1444,5.5958,3.6127,8.2582,7.6561,8.2582,2.6193,0,2.713-0.72369,1.256-9.7006-0.89758-5.5305-3.9336-38.104-3.9659-42.549-0.0302-4.1563,1.9982-1.0444,5.5402,8.5,5.4672,14.732,16.311,40.029,17.799,41.525,0.69779,0.70106,3.5065,1.5397,6.2416,1.8636,5.845,0.69226,6.3814,0.23225,8.9059-7.6383,3.83-11.941,16.746-46,17.444-46,0.40769,0,1.0544,13.058,1.437,29.018,0.38269,15.96,0.94162,29.659,1.242,30.442,0.30044,0.78293,1.7457,1.6073,3.2116,1.8319,4.8367,0.74115,10.04,0.72038,10.499-0.0419zm35.44-17.5,0.27308-17.75,10.451,0,10.451,0,1.7124,3.25c0.94184,1.7875,4.515,9.55,7.9403,17.25l6.2278,14,7.5503-0.0482c4.1527-0.0265,7.8542-0.35214,8.2256-0.72354,0.76944-0.76945-6.9043-18.605-12.716-29.555-2.1388-4.0298-3.8888-7.45-3.8888-7.6006,0-0.15056,2.1783-1.6278,4.8406-3.2828,6.6877-4.1573,10.159-11.107,10.159-20.337,0-11.733-3.3087-17.798-11.909-21.831-5.5654-2.6099-5.7028-2.6217-30.591-2.6217h-25l-0.31266,28.5c-0.17197,15.675-0.0112,35.381,0.35716,43.79l0.66983,15.29,7.6428-0.29013,7.6428-0.29014,0.27307-17.75zm0.70841-30.938c-0.30039-0.7828-0.41911-7.0233-0.26382-13.868l0.28234-12.445,9-0.31313c14.322-0.49828,19.317,0.42965,23.197,4.3096,2.8827,2.8827,3.3035,3.9595,3.3035,8.4532,0,6.3545-2.0363,10.489-6.2669,12.725-4.47,2.3625-28.424,3.294-29.252,1.1374zm76.896,44.136c0.48255-0.44172,1.5111-6.7983,2.2856-14.126,0.77453-7.3274,1.6031-13.885,1.8413-14.573,0.27376-0.79027,2.4006-1.25,5.7829-1.25,6.708,0,15.243-2.4603,19.385-5.588,1.7448-1.3175,4.4448-4.9866,6-8.1537,2.5352-5.1629,2.8276-6.7999,2.8276-15.831,0-9.3776-0.19488-10.368-2.8227-14.338-4.7475-7.1739-9.094-8.492-28.177-8.5445l-16-0.0441-0.68806,26c-0.37844,14.3-1.1812,32.881-1.784,41.291-0.60274,8.4098-0.82222,15.733-0.48771,16.275,0.67886,1.0984,10.421,0.17933,11.837-1.1167zm4.6226-54.617c0-9.5023,0.38151-14.313,1.2-15.132,1.5796-1.5796,13.595-1.533,16.704,0.0647,4.5854,2.3565,6.5748,6.2925,6.4271,12.716-0.24655,10.725-4.8815,15.034-17.009,15.812l-7.3221,0.4699v-13.932zm30-54.318c0-2.4475-0.60977-3.2414-3.3779-4.398-1.8579-0.77626-3.6559-1.8612-3.9957-2.4109-0.33977-0.54975-1.7242-6.5582-3.0765-13.352-3.0693-15.42-5.9356-24.802-8.6201-28.215-2.6211-3.3322-5.3757-3.5622-4.6452-0.38794,3.62,15.731,4.8399,21.792,6.1293,30.452,0.83544,5.611,2.182,11.789,2.9923,13.728,1.7472,4.1817,6.8137,7.5611,11.344,7.5663,2.942,0.003,3.25-0.27927,3.25-2.9828zm-202.27-1.6145c7.982-3.8527,12.002-11.253,10.989-20.233-0.74668-6.6245-5.1777-10.461-14.007-12.127-7.7353-1.4596-9.2922-2.7783-7.9753-6.7556,1.5792-4.7697,6.5425-7.2836,14.38-7.2836,5.7162,0,6.9841-0.31231,7.8521-1.9343,2.7016-5.0481-0.75997-6.8729-9.5688-5.0442-10.349,2.1486-19.852,11.501-21.094,20.762-0.71033,5.2959,1.6996,7.6699,9.3583,9.2189,8.0664,1.6314,10.339,3.2553,10.339,7.3861,0,7.5511-7.1272,11.457-17.281,9.4706-3.1793-0.62206-6.0516-0.85993-6.383-0.52862-0.33132,0.33132-0.65507,2.3043-0.71945,4.3844-0.1134,3.664,0.0234,3.82,4.383,5.0012,5.9993,1.6255,13.346,0.76262,19.726-2.3169zm50.267-1.738c15.654-7.5296,17.428-35.438,2.7058-42.565-8.3082-4.022-20.124-2.4168-26.834,3.6454-4.8522,4.3837-6.2807,7.0335-7.8212,14.509-4.1748,20.257,13.117,33.469,31.949,24.411zm-15.993-6.9396c-4.1046-2.0509-6.1929-7.2829-5.6946-14.267,0.73931-10.36,5.227-15.909,12.866-15.909,2.8368,0,4.5361,0.7074,6.5594,2.7308,2.3775,2.3775,2.7784,3.6739,3.099,10.023,0.44981,8.9075-1.32,13.81-6.0195,16.676-3.7853,2.3079-7.2124,2.5447-10.81,0.74699zm129.19,8.0524,3.9612-2.2263,1.7427,2.3103c1.2732,1.6879,2.5327,2.2203,4.675,1.9763l2.9323-0.33402-0.35688-8c-0.54437-12.203-2.712-25.076-4.8363-28.723-1.05-1.8025-3.9111-4.3872-6.358-5.7438-3.6932-2.0476-5.8408-2.4722-12.644-2.5-9.4942-0.0388-11.324,0.93613-9.4544,5.0385,1.1656,2.5582,1.3708,2.61,7.9229,1.9997,7.7494-0.72181,10.995,0.46129,13.056,4.7594,1.99,4.1502,0.19785,5.6676-6.7019,5.6745-11.839,0.0117-17.118,3.4798-17.827,11.712-1.1004,12.782,12.215,20.617,23.888,14.056zm-11.534-7.6024c-2.3131-2.5559-2.0985-7.4599,0.42639-9.7449,1.5152-1.3713,3.6233-1.8894,7.75-1.905l5.6686-0.0214,0.31327,4.3682c0.42795,5.9672-2.4597,9.1318-8.3326,9.1318-2.7705,0-4.7263-0.61395-5.8257-1.8287zm-47.655,7.5223c3.2177-1.0973,3.5-1.5161,3.5-5.1936,0-3.6768-0.20199-3.9767-2.5-3.7119-13.099,1.5094-14.453,1.4424-17.371-0.85922-3.7709-2.9743-5.6292-7.6459-5.6273-14.147,0.002-7.066,2.4735-11.782,7.4465-14.209,3.7057-1.8087,4.3049-1.834,9.7622-0.41219,6.195,1.614,6.9273,1.3536,8.2412-2.931,0.59076-1.9264,0.15989-2.4943-2.8455-3.75-5.0809-2.1229-17.085-1.8994-22.177,0.413-13.458,6.1123-16.795,27.512-6.0559,38.836,2.2697,2.3934,5.9266,4.9887,8.1266,5.7674,4.8645,1.7218,14.736,1.8215,19.5,0.19711zm24.909-0.0844c0.85585-1.0312,0.91849-6.6933,0.2423-21.902-0.50157-11.281-1.1932-20.966-1.537-21.522-0.84687-1.3703-8.5962-2.6067-9.6494-1.5396-0.46363,0.46975-0.53297,10.754-0.1541,22.854l0.68886,22,4,0.60809c2.2,0.33446,4.2824,0.67196,4.6276,0.75,0.34515,0.078,1.147-0.48394,1.7818-1.2489zm-1.9094-54.574c0-3.386-2.2491-5.0352-6.8669-5.0352-3.2894,0-4.7644,2.4358-3.6331,6,0.52175,1.6439,1.513,2,5.5674,2,4.801,0,4.9326-0.0791,4.9326-2.9648z"/>
   <path id="path2836" fill="#51b6e4" d="m225.21,384.39c-9.7887-3.0958-16.499-9.1547-21.513-19.424-2.8898-5.9192-3.3865-6.4613-4.3737-4.7733-4.8626,8.3147-10.875,11.772-20.47,11.772-16.708,0-33.458-10.693-40.809-26.052-2.0926-4.3724-2.7898-7.5604-3.133-14.325l-0.44141-8.7012-6.1741,0.57655c-7.6664,0.71589-12.596-1.4656-20.397-9.0266-17.253-16.73-23.554-44.74-14.569-64.76l2.5401-5.66-3.5558-4.6584c-11.747-15.389-9.7085-45.724,4.481-66.694,6.0087-8.88,13.615-14.257,22.251-15.729l4.1562-0.7087,0.76604-6.9732c1.6094-14.65,12.485-30.271,25.554-36.705,5.874-2.8918,7.5604-3.2614,14.659-3.2131,9.8836,0.0673,14.657,2.0386,23.879,9.8619,3.62,3.0709,6.7592,5.5835,6.976,5.5835,0.21684,0,1.154-1.9895,2.0827-4.4211,0.96531-2.5276,3.6252-6.2064,6.2107-8.5896,19.822-18.271,54.008-11.299,65.805,13.42,1.8612,3.8998,3.6362,7.878,3.9444,8.8405,0.81268,2.5373,2.364,2.1498,4.0026-1,4.4508-8.5553,17.283-13.523,29.229-11.315,18.471,3.4146,33.062,18.029,36.507,36.565,1.0537,5.6707,0.66043,19.495-0.73209,25.738-0.63823,2.861-0.43525,3.0365,4.8494,4.1934,7.2501,1.5871,13.952,12.108,17.953,28.184,3.0954,12.436,3.1167,35.324,0.0434,46.539-2.6084,9.5186-6.1926,16.691-11.013,22.039-3.6054,3.9995-11.973,8.7776-15.406,8.7974-2.5875,0.0149-2.8116,1.1402-1.6378,8.2243,3.0498,18.405-8.6456,40.008-26.377,48.721-6.0547,2.9753-7.385,3.2567-13.707,2.8994-5.3162-0.30039-7.7507-0.94938-10.113-2.696-3.4096-2.5208-5.9743-2.2411-5.9743,0.65141,0,1.0193-0.74885,4.0709-1.6641,6.7814-2.1732,6.4358-13.504,17.95-21.467,21.814-11.161,5.416-23.494,7.0222-32.369,4.2154zm6.5-81.101,0.5-18,9.7036-0.28565c11.584-0.34101,10.083-1.8103,19.382,18.977,3.4825,7.7852,6.9129,14.691,7.6232,15.346,1.8323,1.6896,14.763,0.70114,15.486-1.1839,0.57344-1.4944-6.5309-18.304-12.564-29.728-3.5314-6.6867-3.5762-6.9055-1.6346-8,5.1041-2.8773,10.319-9.2635,11.893-14.564,4.2634-14.356-0.82994-26.37-13.217-31.176-5.2514-2.0373-7.4529-2.2074-29.672-2.2928l-24-0.0922-0.26072,43.385c-0.19187,31.927,0.0474,43.756,0.90618,44.791,0.84864,1.0226,3.1017,1.3268,8.2607,1.1154l7.0938-0.29063,0.5-18zm0.4341-32.811c-0.27673-0.72113-0.3751-6.4586-0.21862-12.75l0.28452-11.439,12-0.30758c6.8482-0.17553,13.63,0.16985,15.798,0.80447,10.08,2.9516,10.228,19.378,0.2124,23.563-4.6613,1.9476-27.338,2.0516-28.076,0.12868zm-35.434,37.974c0-6.7853-0.29768-26.585-0.66151-44l-0.6615-31.663h-9.216c-6.1748,0-9.5449,0.4125-10.212,1.25-1.2136,1.5224-11.246,26.482-17.786,44.25-2.6318,7.15-5.1272,13.392-5.5453,13.872-1.3542,1.5525-10.945-20.325-20.038-45.708-2.1784-6.081-4.4475-11.643-5.0425-12.36-1.2979-1.5639-10.138-1.7477-12.903-0.26836-1.719,0.91998-1.9338,2.172-1.9302,11.25,0.008,20.876,3.7542,55.688,6.8755,63.898,1.0615,2.792,7.5807,5.766,9.1516,4.1748,0.46585-0.47187,0.20409-5.1329-0.58168-10.358-1.5159-10.08-3.4494-31.574-3.4494-38.345,0-5.365,1.0015-3.988,4.9788,6.8452,6.0883,16.583,16.322,39.59,18.012,40.495,2.3454,1.2552,10.864,1.573,11.86,0.44248,0.45426-0.51563,2.7048-6.3375,5.0013-12.938,7.3178-21.031,13.895-37.916,14.901-38.251,0.61086-0.20362,1.15,10.312,1.4438,28.159,0.3491,21.208,0.79829,28.881,1.7584,30.038,0.91938,1.1078,3.12,1.5538,7.667,1.5538h6.3776v-12.337zm112.49,7.2504c0.89241-0.90542,1.8322-6.0865,2.6144-14.414,0.67163-7.15,1.5175-13.348,1.8797-13.774,0.36219-0.42553,4.3112-1.1903,8.7756-1.6994,16.276-1.8563,23.403-9.1457,25.721-26.304,0.99327-7.3537-1.0522-15.238-5.1221-19.743-5.249-5.81-9.9475-6.9804-28.022-6.9804-15.067,0-15.31,0.0347-15.763,2.25-0.25313,1.2375-0.73922,16.65-1.0802,34.25-0.34097,17.6-0.96667,35.375-1.3904,39.5-0.42378,4.125-0.56324,7.8884-0.30992,8.3631,0.71079,1.332,11.128,0.14274,12.697-1.4496zm5.1131-41.739c-0.36502-0.59061-0.35766-7.1715,0.0164-14.624l0.67999-13.55h7.9136c4.3525,0,8.7794,0.46334,9.8375,1.0296,7.3044,3.9092,6.2695,20.62-1.5564,25.133-3.6648,2.1134-15.926,3.5738-16.891,2.0119zm29.313-64.579c1.759-2.1194,0.2582-6.5127-2.4576-7.1943-3.9869-1.0006-5.2388-3.5614-7.4294-15.197-2.2333-11.862-5.2989-22.845-7.655-27.425-1.577-3.0658-5.1878-5.3976-6.3833-4.1223-0.43446,0.46345,0.24343,4.8926,1.5064,9.8426s3.0306,13.95,3.928,20c0.89743,6.05,2.069,12.627,2.6034,14.616,1.1833,4.4034,5.1816,8.5899,9.3622,9.8028,4.4429,1.289,5.219,1.2506,6.5251-0.32326zm-202.42-3.3402c8.294-4.273,11.898-10.665,11.301-20.044-0.60975-9.576-3.0136-11.394-19.551-14.788-1.7082-0.35058-2.25-1.1581-2.25-3.3538,0-5.6213,8.5444-10.128,16.406-8.6535,2.8993,0.54391,3.7171,0.24304,5.5-2.0236,3.5955-4.571,2.3684-6.3928-4.306-6.3928-12.88,0-26.6,11.762-26.6,22.805,0,5.0383,1.9607,6.7423,9.8852,8.591,9.4275,2.1993,11.699,5.0335,8.9201,11.132-2.255,4.9493-10.303,6.9375-17.677,4.367-3.8641-1.347-5.6905-0.16469-6.6759,4.3218-0.70108,3.192,0.214,4.2784,5.0476,5.9926,3.8556,1.3674,15.823,0.19826,20-1.9539zm163.08-0.74701c2.7551-1.3954,5.0688-2.0475,5.2588-1.4821,0.77531,2.3068,3.581,4.0628,6.0364,3.778,2.1628-0.25078,2.6801-0.88556,2.9418-3.6096,0.51461-5.3575-2.6623-29.994-4.2682-33.099-2.0382-3.9414-6.8915-7.8184-11.33-9.0512-5.3149-1.4761-16.474-1.3094-18.645,0.27848-1.6895,1.2354-1.703,1.5267-0.20479,4.4239l1.6038,3.1014,7.5432-0.57049c6.9302-0.52413,7.744-0.38188,10.014,1.7504,1.3588,1.2765,2.4705,3.3014,2.4705,4.4998,0,1.9908-0.65519,2.2343-7.5876,2.8203-12.739,1.0768-17.412,4.7543-17.412,13.701,0,7.4611,3.9467,12.884,10.914,14.995,4.5678,1.3843,7.6359,1.0122,12.667-1.5359zm-9.8759-7.7584c-0.92271-0.6875-1.9556-2.6656-2.2953-4.3958-0.94981-4.8377,2.1243-7.3542,8.9837-7.3542,5.7403,0,6.607,0.7382,6.607,5.6272,0,5.5798-8.6672,9.5712-13.295,6.1228zm-105.83,7.6951c10.179-3.023,16.148-12.427,16.105-25.373-0.0493-14.737-9.478-23.428-23.453-21.619-13.817,1.7884-22.525,11.98-22.525,26.363,0,16.843,12.818,25.694,29.873,20.63zm-15.284-11.522c-2.2428-2.6654-2.5889-4.0077-2.5889-10.04,0-11.194,4.0816-16.883,12.113-16.883,1.6603,0,3.9272,0.48622,5.0376,1.0805,4.3351,2.3201,6.1036,12.002,3.6736,20.113-2.6244,8.7595-12.955,12.006-18.235,5.7301zm70.524,11.625c5.2034-0.84539,7.4416-3.6474,6.222-7.7892-1.0443-3.5463-1.4729-3.6312-8.4981-1.6833-9.1718,2.5432-15.756-1.7193-17.365-11.242-1.7561-10.394,3.5223-18.834,11.779-18.834,2.4479,0,5.902,0.5059,7.6758,1.1242,3.7483,1.3067,4.7768,0.60899,5.6676-3.8447,0.62453-3.1226,0.56671-3.1769-5.1594-4.8415-17.852-5.1898-32.435,4.8701-32.435,22.375,0,8.1182,1.4746,13.094,5.2314,17.651,3.5404,4.2951,7.4972,6.475,13.672,7.5319,4.519,0.77355,5.996,0.72338,13.21-0.44863zm27.084-21.463c-0.1667-11.778-0.74503-22.241-1.2852-23.25-0.75624-1.413-2.1588-1.8351-6.099-1.8351h-5.1169l0.71136,22.691c0.39124,12.48,0.9499,23.077,1.2414,23.549,0.29155,0.47174,2.8524,0.72309,5.6907,0.55855l5.1606-0.29916-0.30308-21.415zm-1.5136-31.702c0.34127-0.88936,0.20381-2.8019-0.30547-4.25-0.83249-2.3672-1.4284-2.633-5.9019-2.633-4.7678,0-4.99,0.12342-5.3117,2.9507-0.4242,3.7276,1.8929,5.5493,7.0583,5.5493,2.6146,0,4.0383-0.5161,4.4608-1.617z"/>
   <path id="path2834" fill="#35abe0" d="m219.89,381.72c-7.2106-3.6032-12.073-8.8976-16.206-17.645-1.6337-3.4578-3.1287-6.2869-3.3222-6.2869-0.19349,0-1.6975,2.1648-3.3422,4.8106-8.88,14.285-32.674,11.763-49.903-5.2888-8.822-8.7312-11.602-15.039-11.91-27.022-0.22697-8.836,0.41169-8.2614-7.682-6.911-8.0915,1.35-21.017-8.0598-28.634-20.845-9.9023-16.622-12.037-39.035-5.0435-52.954,2.4107-4.7978,2.3529-7.0379-0.24217-9.3848-4.6666-4.2204-8.8499-16.973-8.8788-27.067-0.03178-11.099,4.7539-28.16,10.508-37.461,6.1849-9.9981,15.51-17.059,24.408-18.482,4.5049-0.72035,4.6555-1.0054,5.3682-10.158,0.94385-12.121,12.336-27.965,24.349-33.864,5.128-2.518,6.9641-2.8732,14.851-2.8732,10.88,0,15.66,1.9766,24.44,10.105,3.1763,2.9407,6.0326,5.0891,6.3474,4.7743s1.7656-3.0114,3.2241-5.9923c7.952-16.253,33.221-22.113,52.781-12.239,10.213,5.1553,15.015,11.199,21.537,27.102,1.444,3.5213,2.7421,3.4793,4.6187-0.14963,2.2395-4.3307,9.0513-9.7003,14.098-11.113,2.6334-0.73731,7.4782-1.0559,11.82-0.77732,19.985,1.2826,36.951,17.947,39.578,38.875,0.76374,6.0825,0.14084,18.979-1.2107,25.066-0.12853,0.57884,1.5663,1.604,3.7663,2.2782,5.9256,1.8158,8.2667,3.571,11.54,8.6522,6.4685,10.041,9.9598,25.269,9.9598,43.442,0,29.175-9.6478,48.307-26.515,52.579l-4.0151,1.0171,0.0151,12.69c0.015,12.598-0.012,12.747-3.707,20.485-7.5262,15.762-21.407,26.205-34.83,26.205-5.5194,0-7.2713-0.44816-10.75-2.75-2.2855-1.5125-4.5559-2.75-5.0453-2.75-0.48937,0-1.1302,1.7924-1.424,3.983-1.2112,9.0306-7.9505,18.38-18.004,24.978-8.586,5.6348-16.861,8.0388-27.671,8.0388-7.748,0-9.4288-0.34671-14.875-3.0683zm-23.488-61.182c1.1971-1.8496,0.30908-85.978-0.92358-87.5-0.67033-0.82774-3.9699-1.25-9.7674-1.25-5.7867,0-9.1052,0.42381-9.7877,1.25-1.2398,1.5009-9.2938,21.437-17.26,42.723-3.1848,8.5102-6.1645,15.595-6.6215,15.744-1.0267,0.33452-8.611-17.459-17.345-40.694l-6.587-17.523h-7.4494-7.4494l-0.32642,13.5c-0.46879,19.388,2.2212,47.43,5.86,61.087,1.0131,3.8023,4.052,5.9129,8.5134,5.9129,2.8159,0,2.9065-0.61234,1.4334-9.6887-0.81626-5.0294-3.9568-37.23-3.9755-40.761-0.0129-2.4384,2.1739,1.727,5.4861,10.45,1.984,5.225,6.3515,15.921,9.7056,23.768,6.6828,15.635,6.5869,15.539,15.673,15.669l4.37,0.0626,7.7281-21.5c4.2505-11.825,8.6222-23.525,9.7149-26l1.9868-4.5,0.7432,26.014c0.40876,14.308,1.0618,27.583,1.4511,29.5,0.65524,3.2263,1.0401,3.5304,5.1719,4.0855,7.4504,1.0011,8.8126,0.95172,9.655-0.34981zm35.702-0.33179c0.33385-0.86998,0.60699-8.97,0.60699-18v-16.418h9.8491,9.8491l4.534,9.75c2.4937,5.3625,5.7929,12.675,7.3316,16.25,4.1368,9.6115,3.7624,9.3504,12.369,8.6229,4.112-0.34759,7.908-1.0636,8.4355-1.5912,0.99292-0.99292-6.4982-18.787-12.948-30.756l-3.3542-6.2246,4.4436-3.0573c6.4894-4.4648,9.698-10.545,10.27-19.462,0.97502-15.193-5.0579-23.33-19.579-26.408-2.9993-0.63572-14.818-1.1232-27.231-1.1232h-21.932l-0.67797,2.7013c-0.77182,3.0752,0.37961,85.069,1.2136,86.418,0.29938,0.48441,4.0696,0.88075,8.3783,0.88075,6.2211,0,7.959-0.32567,8.441-1.5818zm0.60699-61.318,0-13.1,11.25,0.006c12.86,0.006,17.453,0.9848,20.663,4.4021,2.6522,2.8232,3.1641,9.5772,1.103,14.553-2.1431,5.1738-5.8565,6.4308-20.266,6.8602l-12.75,0.37987v-13.1zm72.434,58.9c4.82,0,5.611-1.7816,7.1183-16.033,0.78337-7.4067,1.4296-13.739,1.436-14.072,0.006-0.33312,3.3242-0.85618,7.3727-1.1624,17.654-1.3352,26.157-9.9377,27.374-27.696,0.59482-8.6783-0.59605-13.681-4.5003-18.905-4.233-5.6639-9.4919-7.2742-25.743-7.8825-7.8238-0.29286-15.338-0.25304-16.699,0.0885l-2.4741,0.62096-0.64839,29.271c-0.35661,16.099-1.1213,34.862-1.6994,41.695-0.57803,6.8334-0.80101,13.076-0.49551,13.872,0.39752,1.0359,1.4397,1.2707,3.6651,0.8256,1.7103-0.34208,4.0923-0.62194,5.2935-0.62194zm9.7879-57.75,0.27822-13.75,8.2293,0c7.6609,0,8.4206,0.19151,11,2.7727,2.4506,2.4523,2.7707,3.5128,2.7707,9.1767,0,4.9017-0.48583,7.0662-2.0711,9.2273-3.0685,4.183-8.04,6.32-14.707,6.3218l-5.7782,0.002,0.27822-13.75zm29.278-53.242c0-3.0419-0.47366-3.7152-3.6737-5.222-4.0697-1.9163-4.2541-2.3016-5.8781-12.286-3.1362-19.28-8.1399-33.008-12.423-34.083-1.4399-0.36139-2.8682-0.40687-3.1739-0.10107-0.3058,0.30579,0.58821,5.4223,1.9867,11.37,1.3985,5.9478,3.2342,15.595,4.0793,21.438,1.6633,11.499,2.7976,15.333,5.4028,18.261,2.3809,2.6757,7.1671,4.6251,10.68,4.35,2.7158-0.2126,3-0.56569,3-3.727zm-200.63-1.7288c6.3961-3.9519,9.6013-9.8952,9.5884-17.779-0.0157-9.5238-3.5672-13.08-15.568-15.587-6.538-1.3661-7.3302-2.0217-6.4898-5.3704,1.0444-4.1611,6.0293-6.5341,13.735-6.5385,6.0128-0.003,6.7922-0.24373,8.3119-2.563,2.8143-4.2952,1.7446-5.8996-4.1611-6.2414-7.2441-0.41926-12.347,1.2006-18.095,5.7442-5.3528,4.2312-10.191,12.443-10.191,17.298,0,3.9648,3.7561,7.3761,9.0895,8.2551,2.4258,0.39979,5.873,1.3286,7.6605,2.064,2.7479,1.1305,3.25,1.8513,3.25,4.6656,0,7.4174-6.2536,10.842-16.015,8.7702-3.1886-0.67667-6.2722-0.93697-6.8523-0.57843-1.9022,1.1756-2.5382,7.6043-0.91311,9.2294,3.9551,3.9551,19.31,3.1666,26.65-1.3686zm161.26,0.52595,3.9054-2.195,1.5374,2.195c1.717,2.4514,8.3222,3.1812,8.5531,0.94498,0.27442-2.6582-0.24512-11.654-1.1984-20.75-1.5895-15.167-4.1414-20.101-12.121-23.435-5.3288-2.2265-13.645-2.9586-18.56-1.6337-4.4828,1.2084-5.0113,2.3037-3.1172,6.4606,1.0858,2.383,1.4778,2.4783,9.454,2.297,9.087-0.20647,11.113,0.71908,11.631,5.3148,0.27281,2.4163,0.0421,2.5166-7.2182,3.1389-8.4216,0.72176-11.727,1.7695-14.18,4.4943-6.4877,7.2066-3.484,19.986,5.6308,23.956,4.6901,2.0429,11.23,1.7141,15.683-0.78838zm-9.1472-8.1182c-1.8338-0.90943-2.5648-2.1674-2.7865-4.7954-0.39699-4.7055,1.6608-6.3081,8.1599-6.3546l5.1406-0.0368,0.29781,4.0517c0.21479,2.9223-0.20336,4.4877-1.5,5.6157-2.6387,2.2955-6.4824,2.9226-9.3119,1.5194zm-104.48,7.4482c4.6025-2.0909,10.037-7.8654,12.292-13.062,0.91261-2.1026,1.5812-6.6589,1.6249-11.073,0.13731-13.88-6.4116-21.937-18.544-22.815-8.9809-0.64962-14.491,1.3098-20.416,7.2596-5.7951,5.8198-7.5911,10.555-7.5911,20.013,0,9.7398,4.0401,16.864,11.37,20.05,4.7324,2.0568,16.365,1.8533,21.264-0.37204zm-15.852-9.2676c-4.6462-2.7008-6.0595-14.179-2.6664-21.655,3.3578-7.3984,12.458-9.2725,16.998-3.5007,2.4656,3.1344,2.8043,14.457,0.59097,19.754-2.2644,5.4195-10.046,8.2364-14.922,5.4018zm71.9,9.0228c2.3213-1.1076,2.9988-2.1429,3.2046-4.8974,0.40683-5.4447-0.82202-6.5908-5.5484-5.1747-5.5797,1.6717-12.356,1.4702-15.096-0.44885-5.0264-3.5207-6.8213-15.451-3.3653-22.369,2.5721-5.1488,8.3373-6.9929,15.1-4.8302,2.7153,0.86832,5.4064,1.2887,5.98,0.93414,1.9586-1.2105,3.3126-6.225,2.0814-7.7085-2.8607-3.4469-18.128-4.5859-24.695-1.8424-4.7398,1.9799-8.8295,5.8669-11.518,10.947-1.6522,3.122-2.1135,5.7582-2.1015,12.01,0.0132,6.9252,0.40697,8.7295,2.9074,13.324,3.209,5.8959,6.6087,8.7548,12.834,10.792,5.0141,1.6409,16.08,1.2385,20.217-0.73518zm24.777-0.31689c0.77834-2.0283-1.1609-43.802-2.0755-44.709-0.98773-0.9799-9.5596-1.4136-10.95-0.55399-1.0653,0.65837-0.83322,36.168,0.28388,43.44,0.49759,3.2392,0.51862,3.25,6.3469,3.25,4.1418,0,6.0074-0.41618,6.3952-1.4266zm-2.526-54.819c-0.30683-4.2362-0.31819-4.2474-5.2201-5.1379-4.2167-0.76604-5.099-0.63754-6.2285,0.9071-1.1603,1.5868-0.99556,5.3485,0.33834,7.7262,0.23141,0.4125,2.8951,0.75,5.9192,0.75h5.4985l-0.3075-4.2454z"/>
   <path id="path2832" fill="#0097d9" d="m227.21,383.86c-11.535-2.7902-20.538-11.956-24.87-25.32-0.97418-3.0051-3.0326-1.9272-5.6301,2.9482-1.781,3.343-3.7942,5.3815-7,7.0884-4.0023,2.1309-5.4401,2.3452-13,1.937-6.7106-0.36237-9.9244-1.1067-15.266-3.5359-9.0296-4.1062-17.768-12.481-22.007-21.09-2.8118-5.7111-3.2555-7.7004-3.4493-15.465-0.12235-4.9008-0.43688-9.125-0.69896-9.3871-0.26208-0.26208-1.9166,0.0255-3.6768,0.63911-7.8321,2.7303-15.12-0.0459-24.122-9.1886-6.2469-6.3447-13.51-19.733-15.672-28.889-2.0301-8.5978-1.3653-22.446,1.455-30.307,1.3813-3.85,2.7789-7.8135,3.1059-8.8078,0.37913-1.1528-0.31912-2.7832-1.9272-4.5-6.2941-6.7197-9.244-17.384-8.4551-30.567,1.6019-26.768,15.809-48.359,33.845-51.434l4.3683-0.74482,0.69781-6.3001c0.8776-7.9233,2.2532-12.249,6.029-18.957,4.3056-7.6494,12.054-14.952,19.711-18.578,13.05-6.1795,25.409-3.6656,37.637,7.656,3.3206,3.0743,6.4833,5.2843,7.0281,4.9111,0.54483-0.37323,2.218-3.2212,3.7182-6.3287,4.618-9.5661,15.181-15.662,28.749-16.592,19.762-1.3546,36.11,9.2355,42.486,27.522,2.6127,7.4937,4.584,8.782,6.8204,4.4573,2.3251-4.4962,9.0731-10.012,13.816-11.292,7.0638-1.9075,19.339-0.75106,26.054,2.4547,18.301,8.7363,27.89,28.248,24.904,50.675-1.6125,12.111-1.741,11.584,2.9759,12.217,16.053,2.1531,26.341,40.324,19.332,71.726-3.6838,16.504-11.618,27.421-22.268,30.638-3.1306,0.94559-6.0716,2.0374-6.5355,2.4264-0.46394,0.38891-0.36163,3.813,0.22736,7.6092,2.2424,14.452-2.5782,28.208-13.795,39.364-7.9016,7.8589-14.287,11.135-22.887,11.742-5.73,0.40423-6.7581,0.15836-11.398-2.7256-5.9324-3.6878-7.8006-3.413-7.8141,1.1494-0.0257,8.6283-9.9966,21.312-21.623,27.506-9.8385,5.2417-22.342,7.4067-30.867,5.3446zm5.5-79.57,0.5-18,9.4149,0,9.4149,0,7.4017,16.478c4.071,9.0628,7.8875,17.063,8.4811,17.778,1.3611,1.64,15.62,0.63221,17.622-1.2455,1.1025-1.0339,0.17604-3.8094-5.3236-15.949-3.6621-8.0834-7.5104-16.141-8.5516-17.906l-1.8932-3.2088,4.6684-3.4736c7.0853-5.2719,9.7683-11.309,9.7533-21.947-0.0136-9.6408-1.9918-14.748-7.5106-19.392-6.1734-5.1945-12.059-6.1327-38.477-6.1336l-24-0.00081-0.2605,44.385c-0.19154,32.636,0.0478,44.756,0.90395,45.788,0.86385,1.0409,3.2544,1.3287,9.2605,1.1151l8.0961-0.28795,0.5-18zm0.43162-34.818c-0.27809-0.72469-0.37647-6.0122-0.21862-11.75l0.287-10.432,12.56-0.27846c11.713-0.25967,12.792-0.12251,16,2.0336,4.3583,2.9292,5.813,7.8879,4.0451,13.789-1.8525,6.1831-6.3877,7.9058-20.886,7.9341-8.4274,0.0164-11.409-0.31137-11.787-1.2956zm-35.212,51.068c0.23848-0.6875,0.0499-20.806-0.41903-44.707-0.63569-32.4-1.164-43.655-2.0766-44.235-0.6732-0.42769-4.8866-0.78452-9.3632-0.79294-6.3343-0.0119-8.5852,0.37275-10.151,1.7347-1.6573,1.442-11.57,25.497-21.943,53.25l-2.0557,5.5-2.1992-5c-4.6089-10.479-13.294-32.399-16.614-41.934-1.9027-5.4638-3.9508-10.526-4.5514-11.25-1.6241-1.9569-14.216-1.7807-15.879,0.22217-2.8458,3.4289,0.37617,52.875,4.6789,71.805,1.4188,6.2424,1.8511,6.9669,4.9219,8.25,3.9508,1.6507,7.0633,1.8101,7.9311,0.40599,0.34013-0.55033-0.0741-5.8378-0.92059-11.75-1.8124-12.659-3.723-34.44-3.0776-35.085,0.24791-0.24791,0.75601,0.40116,1.1291,1.4424,7.2272,20.168,18.092,44.195,20.252,44.784,4.0308,1.0995,10.737,1.5279,11.926,0.7617,1.0756-0.69323,7.2329-16.718,16.89-43.957,0.83928-2.3673,1.6719-4.1583,1.8502-3.98,0.17833,0.17833,0.78649,12.175,1.3515,26.658,0.66501,17.048,1.4358,26.826,2.1858,27.73,1.5357,1.8504,15.498,1.9767,16.133,0.14592zm112.37-3.9338c0.77017-0.7824,1.8342-6.7839,2.6237-14.799l1.3281-13.483,8.7281-1.247c10.229-1.4614,15.365-3.811,19.624-8.977,4.5268-5.4918,6.5351-12.349,6.5346-22.311-0.00053-9.1371-1.3138-12.994-6.2056-18.223-3.8358-4.1007-10.039-5.5332-26.884-6.2078-12.436-0.49799-15.418-0.34901-16.596,0.82922-1.16,1.16-1.5576,7.5586-2.0669,33.269-0.34686,17.508-1.0927,36.333-1.6574,41.833-0.87039,8.4769-0.80267,10.166,0.44459,11.087,1.8698,1.3813,12.313,0.0723,14.127-1.7708zm5.1221-43.564c-0.22337-0.41343-0.19607-6.4892,0.0607-13.502l0.4668-12.75h7.3235c6.3,0,7.7156,0.3373,10.129,2.4134,2.5401,2.1849,2.8058,3.03,2.8058,8.9267,0,7.1196-1.991,11.135-6.5899,13.289-3.0255,1.4172-13.651,2.6318-14.196,1.6227zm29.277-62.741c0.78819-0.9497,0.99482-2.7735,0.57049-5.0354-0.55077-2.9359-1.1876-3.6508-3.6996-4.1532-3.7908-0.75816-4.2236-1.7925-7.3452-17.556-4.1966-21.192-8.266-29.766-14.127-29.766-2.9554,0-2.9537,0.32069,0.0638,12.216,1.3492,5.3186,3.149,14.66,3.9995,20.758,2.169,15.551,4.6164,20.785,11.047,23.623,4.0132,1.7715,7.9789,1.7353,9.4909-0.0865zm-205.94-2.0306c6.1463-2.1686,10.871-6.1078,13.031-10.864,2.3038-5.073,2.5036-14.573,0.39251-18.656-1.8069-3.4942-7.7722-6.7644-13.862-7.5991-5.9056-0.80945-7.0176-1.6315-6.2648-4.631,1.047-4.1714,5.254-6.1674,13.07-6.2006,6.6067-0.0281,7.0056-0.16626,8.7447-3.0294,3.7963-6.25,1.3739-8.2485-8.7338-7.2053-10.837,1.1185-21.121,9.3822-24,19.286-2.5532,8.7829,0.0642,11.954,11.876,14.389,6.9129,1.4248,8.8091,3.9257,6.5495,8.6383-2.4978,5.2093-7.9832,6.2944-19.111,3.7804-2.4565-0.55498-2.9189-0.2227-4.3044,3.0934-0.85375,2.0433-1.414,4.4585-1.2449,5.367,0.85822,4.6124,14.984,6.763,23.857,3.6322zm165.43-1.4718,3.9061-1.9914,2.1959,2.063c1.529,1.4365,3.2161,1.9653,5.5553,1.7414,3.2716-0.31311,3.3678-0.45224,3.6801-5.3215,0.36273-5.6552-1.4081-22.784-3.0355-29.362-1.3903-5.6195-6.9947-11.56-12.285-13.021-5.055-1.3965-18.012-1.4475-20.566-0.081-2.3349,1.2496-2.4389,3.0882-0.39804,7.0348l1.5362,2.9707,7.8311-0.65309c7.1397-0.59542,8.0194-0.46479,9.9638,1.4796,3.7827,3.7827,2.8003,4.7936-5.2508,5.4024-12.517,0.94669-17.616,5.119-17.616,14.415,0,2.9781,0.63224,6.63,1.405,8.1151,4.2609,8.1894,14.737,11.462,23.078,7.2089zm-8.6911-10.259c-5.1265-4.0299-1.7779-9.75,5.7079-9.75,3.218,0,4.5,0.40403,4.5,1.4182,0,0.78002,0.26547,2.11,0.58992,2.9555,0.80168,2.0891-3.8909,6.6263-6.8533,6.6263-1.2949,0-3.0699-0.5625-3.9445-1.25zm-104.28,8.8987c10.355-4.8223,14.918-13.402,14.349-26.985-0.31515-7.5222-0.69886-8.9788-3.3558-12.74-4.3891-6.2124-9.321-8.4398-18.5-8.3553-15.518,0.14279-24.822,9.3988-25.793,25.661-0.4116,6.8918-0.17017,8.3254,2.2274,13.226,4.1315,8.4445,9.1541,11.31,20.066,11.449,4.3087,0.0547,7.4114-0.5811,11.007-2.2556zm-16.482-11.623c-2.6394-2.6394-3.3466-5.9088-2.8282-13.075,0.5263-7.276,3.023-11.077,8.126-12.371,4.9356-1.2515,8.3798,0.46581,10.339,5.1552,2.7386,6.5544,0.10005,18.717-4.607,21.236-3.1963,1.7106-8.8596,1.2254-11.03-0.94492zm73.475,11.079c2.6111-1.5321,2.9884-2.3062,2.9108-5.9716-0.13-6.1375-1.239-6.7752-8.0541-4.6316-5.1127,1.6081-6.1773,1.652-9.7507,0.40199-5.3838-1.8833-7.941-6.325-7.9341-13.781,0.009-10.272,4.8704-15.153,13.597-13.653,9.2901,1.5964,10.139,1.3932,11.144-2.6686,1.1568-4.675-0.0197-6.212-5.8858-7.6891-10.198-2.5678-20.333-0.57822-26.395,5.1814-5.2027,4.9432-7.0842,9.9686-7.1096,18.99-0.0411,14.569,6.2228,23.096,18.978,25.836,5.11,1.0976,15.039,0.0168,18.5-2.0138zm23.755-21.496c-0.16238-15.174-0.62511-23.35-1.3724-24.25-0.71124-0.85699-3.2542-1.3585-6.8884-1.3585-4.6664,0-5.8375,0.33249-6.164,1.75-0.51854,2.2514,0.98424,44.324,1.6447,46.045,0.35413,0.92286,2.3194,1.2143,6.7622,1.0029l6.2629-0.29805-0.24499-22.892zm-1.4451-32.312c0.17045-1.7621-0.19446-4.1462-0.81092-5.2981-0.96943-1.8114-1.8893-2.054-6.8099-1.7962l-5.6891,0.29809-0.31453,3.8198c-0.45754,5.5566,1.0582,6.8273,7.7244,6.4753,5.4876-0.28972,5.5958-0.35386,5.9-3.4989z"/>
  </g>
 </g>
</svg>