<?xml version="1.0" encoding="UTF-8" standalone="no"?>
<svg id="svg2" xmlns:rdf="http://www.w3.org/1999/02/22-rdf-syntax-ns#" xmlns="http://www.w3.org/2000/svg" viewBox="0 0 354 354" version="1.1" xmlns:cc="http://creativecommons.org/ns#" xmlns:dc="http://purl.org/dc/elements/1.1/">
 <defs id="defs4"></defs>
 <metadata id="metadata7">
  <rdf:RDF>
   <cc:Work rdf:about="">
    <dc:format>image/svg+xml</dc:format>
    <dc:type rdf:resource="http://purl.org/dc/dcmitype/StillImage"/>
    <dc:title/>
   </cc:Work>
  </rdf:RDF>
 </metadata>
 <g id="layer1" transform="translate(-183,-269.64786)">
  <g id="g2830" transform="translate(-17.142857,-7.1428558)">
   <path id="path2844" fill="#d0eaf6" d="m347.96,619.08c-8.3228-4.0978-15.677-11.503-19.89-20.029l-3.6652-7.416-1.7257,2.8377c-10.819,17.791-42.795,15.508-64.084-4.5757-11.24-10.603-16.878-22.921-16.878-36.876v-7.2665l-3.0784,1.0732c-6.497,2.2649-16.884-1.0206-25.354-8.0196-10.338-8.5429-21.354-26.387-25.101-40.658-3.8878-14.81-2.8106-33.037,2.6328-44.547,2.7311-5.775,2.8357-6.3996,1.3977-8.3474-9.5469-12.932-11.498-19.218-11.498-37.051,0-19.699,4.8104-35.851,14.997-50.356,8.0219-11.423,17.578-18.209,28.179-20.013l4.3237-0.73554,0.62423-7.4749c2.0538-24.593,25.159-48.94,48.091-50.675,12.691-0.95981,23.199,3.2194,34.043,13.539,3.1666,3.0136,5.8906,5.2951,6.0535,5.07,0.16285-0.2251,1.1664-2.4072,2.2301-4.8492,2.7069-6.2143,10.144-13.264,18.295-17.342,6.0791-3.0412,8.1854-3.5431,17.293-4.1203,22.054-1.3976,33.926,2.3024,45.955,14.323,5.9814,5.9771,11.71,15.345,14.34,23.452,0.51445,1.5855,1.1464,1.1676,4.1166-2.7223,8.0758-10.577,23.344-14.888,39.356-11.113,19.178,4.5208,35.109,19.604,41.678,39.463,1.9868,6.0058,2.6199,25.849,1.1405,35.75-0.73187,4.8981-0.64542,5.25,1.2898,5.25,3.351,0,9.3598,3.555,13.207,7.8138,4.8551,5.374,9.4255,15.306,12.352,26.844,2.2105,8.714,2.435,11.601,2.435,31.311,0,18.486-0.29948,22.887-2.0159,29.622-5.2422,20.569-15.621,33.485-30.484,37.938l-4,1.1983,0.31022,11.887c0.35729,13.69-0.88369,19.678-6.2456,30.136-6.6707,13.011-15.81,22.032-28.427,28.061-6.3464,3.0326-8.4209,3.5297-15.037,3.6036-6.537,0.073-8.4686-0.32572-13.029-2.6897-2.9449-1.5265-5.4265-2.6515-5.5148-2.5-0.0883,0.15148-0.95047,2.8717-1.916,6.045-3.8725,12.727-14.825,24.21-30.561,32.041l-8.4195,4.1898-16.08,0.25852c-15.537,0.24978-16.258,0.17108-21.337-2.3296zm13.258-100.68c0.48596-14.7,1.1194-22.499,1.8668-22.985,0.62221-0.40408,6.3689-0.74158,12.77-0.75,9.6245-0.0127,12.007,0.28761,13.763,1.7347,1.1681,0.9625,6.133,10.75,11.033,21.75,10.035,22.527,8.7922,21.316,20.294,19.77l5.729-0.77011-6.8867-15.21c-3.7877-8.3652-8.6157-18.425-10.729-22.354-4.3177-8.0289-4.6397-6.9388,3.6156-12.239,8.4585-5.4305,12.91-16.122,11.666-28.02-1.2147-11.622-6.7895-19.005-16.86-22.329-4.3915-1.4497-10.139-1.7997-34.671-2.1118l-29.407-0.37406,0.71939,52.266c0.39566,28.746,0.9427,52.627,1.2156,53.069,0.27294,0.44163,3.7921,0.80296,7.8204,0.80296h7.3242l0.73554-22.25zm0.97457-35.951c-0.28973-0.755-0.40296-9.0062-0.25163-18.336l0.27515-16.963h17.5c16.157,0,17.818,0.17015,21.645,2.2166,11.735,6.2758,10.767,25.977-1.5547,31.651-3.9438,1.8161-6.8773,2.1623-20.838,2.459-13.089,0.27814-16.351,0.0783-16.775-1.0274zm-44.205,45.201c-0.12589-6.325-0.5162-29.838-0.86735-52.25l-0.63845-40.75h-9.8475c-8.5801,0-9.9757,0.23959-10.844,1.8617-1.8289,3.4173-15.279,37.415-22.012,55.638-8.1301,22.006-8.4507,22.194-14.505,8.5-6.1216-13.847-13.12-31.36-19.58-49l-5.6767-15.5h-7.4004-7.4004l0.26431,19c0.36752,26.42,3.2811,54.243,7.2863,69.58,0.75554,2.8932,1.6078,3.7865,4.4421,4.6564,4.2181,1.2946,4.0718,2.8503,1.5935-16.948-2.8268-22.583-4.6886-52.586-3.3464-53.928,1.6616-1.6616,3.0914-0.20069,4.3378,4.4321,1.6518,6.1399,13.795,37.383,20.394,52.471,6.2238,14.23,6.2338,14.239,15.403,14.236l3.625-0.001,3.8178-11.249c5.7913-17.063,20.791-57.083,21.925-58.499,0.55095-0.6875,1.3246-1.25,1.7191-1.25,0.39459,0,1.0246,13.37,1.4,29.711,0.37541,16.341,0.96444,34.318,1.309,39.948l0.62638,10.237,3.6012,0.40583c1.9806,0.2232,5.1762,0.35887,7.1012,0.30149l3.5-0.10479-0.22889-11.5zm136.19,7.1289c3.5854-0.76869,3.9173-2.0175,5.6154-21.129,0.65972-7.425,1.5703-14.225,2.0234-15.112,0.63439-1.241,2.9607-1.7374,10.113-2.1581,11.834-0.69614,17.992-2.8804,23.419-8.3072,5.5956-5.5956,8.7392-15.32,8.7576-27.091,0.0111-7.0912-0.37665-8.9299-2.94-13.942-2.3716-4.6372-3.872-6.2466-7.6234-8.1772-5.9561-3.0651-16.672-4.3708-32.824-3.9996l-12.5,0.28728-0.66699,35.5c-0.36685,19.525-1.1472,40.9-1.7342,47.5-1.6103,18.107-1.6828,17.521,2.1512,17.382,1.7875-0.0651,4.5818-0.40385,6.2096-0.75282zm8.2054-49.746c-0.30464-1.0354-0.24138-9.9825,0.14057-19.882l0.69446-18,10.5-0.27127c8.6362-0.22312,11.121,0.0563,14,1.574,8.8382,4.6597,10.744,20.453,3.6892,30.573-3.0099,4.3178-9.7021,6.8188-19.784,7.3936-7.8801,0.4493-8.7376,0.32056-9.2401-1.3872zm37.32-83.132c-0.0222-2.5388-1.1512-3.88-3.9847-4.7335-5.6754-1.7096-6.1155-2.7713-10.42-25.14-3.0328-15.759-7.9108-29.949-10.833-31.512-1.6314-0.87308-1.943-0.8181-1.5258,0.26914,1.7321,4.514,5.0991,20.586,7.2541,34.628,2.9574,19.27,4.7043,23.509,10.834,26.292,5.38,2.4426,8.6963,2.5178,8.676,0.1968zm-250.47-2.6898c9.9709-4.1661,14.74-11.323,14.74-22.119,0-4.257-0.55086-7.2515-1.6396-8.9132-2.2212-3.39-7.9148-6.1326-15.639-7.5332-8.9956-1.6312-9.9718-2.3161-9.9718-6.9953,0-2.955,0.75665-4.7918,3.05-7.4038,3.8215-4.3525,8.4936-5.9241,17.136-5.7645,5.7161,0.10555,6.9255-0.17195,7.7901-1.7874,2.0708-3.8692,1.3687-4.3373-5.7426-3.8285-8.0578,0.57653-14.5,3.2229-20.049,8.2366-4.9679,4.4882-9.1848,12.624-9.1848,17.721,0,4.7487,2.0837,6.2462,11.413,8.2017,11.979,2.511,15.554,7.391,11.737,16.02-3.313,7.4897-11.729,10.25-22.771,7.4696-5.1406-1.2944-6.3511-0.62874-6.6677,3.6667-0.18503,2.5106,0.26868,3.0072,3.7898,4.148,5.0652,1.6411,16.836,1.0425,22.01-1.1194zm203.92-2.6186c5.3452-3.3898,7.1969-3.2727,8.1476,0.51553,0.49955,1.9904,1.2664,2.5428,3.5298,2.5428,2.7835,0,2.8916-0.17783,2.8916-4.7561,0-6.829-2.8083-29.872-4.2112-34.555-2.6917-8.984-11.397-13.704-25.22-13.674-8.8236,0.0191-10.412,0.83892-8.7384,4.5112,0.85139,1.8686,1.7097,2.4804,2.8605,2.0388,0.90424-0.34699,4.1576-0.89361,7.2297-1.2147,9.8379-1.0283,16.229,3.4102,16.469,11.436l0.11079,3.7131-4.5,0.26632c-8.7379,0.51713-18.335,2.3185-21.121,3.9645-3.8059,2.2482-6.1451,8.3092-5.3229,13.792,1.3886,9.2596,7.565,14.354,17.499,14.433,4.5228,0.036,6.4498-0.52373,10.377-3.0142zm-11.931-3.887c-3.8134-1.5608-6-5.0428-6-9.5546,0-5.154,2.2691-8.0636,7.3999-9.4888,4.1967-1.1658,12.104-1.3075,13.715-0.24588,0.61309,0.40408,1.422,3.2343,1.7976,6.2894,0.59361,4.8288,0.39334,5.9227-1.5326,8.3712-3.6356,4.6219-10.413,6.6617-15.38,4.6288zm-127.86,3.159c10.013-5.1836,14.858-15.135,14.157-29.074-0.4786-9.5119-1.8074-12.955-6.9348-17.968-4.1704-4.0773-9.5147-5.511-18.432-4.9446-16.468,1.046-26.444,12.447-26.427,30.204,0.007,8.0451,1.2905,12.265,5.1531,16.948,4.9633,6.0171,9.6942,7.7667,19.841,7.3381,6.2068-0.26218,9.6176-0.93764,12.643-2.5037zm-19.571-5.9652c-5.7248-2.9192-7.5148-6.3354-7.9129-15.102-0.41798-9.204,0.94092-14.922,4.5714-19.237,6.9579-8.269,19.759-7.7535,24.211,0.97503,3.17,6.2138,2.9228,18.989-0.50039,25.859-4.077,8.1815-12.765,11.383-20.37,7.5053zm86.679,6.712c2.9139-1.0366,3.25-1.5597,3.25-5.0583,0-2.1462-0.16842-3.9022-0.37427-3.9022s-2.2874,0.675-4.6257,1.5c-6.2296,2.1979-13.783,1.9293-18-0.64017-6.4372-3.9224-8.8124-9.0856-8.9239-19.398-0.092-8.5087,2.6009-14.725,7.9239-18.29,3.627-2.4296,3.5944-2.428,19.371-0.94199,2.2158,0.20871,3.069-0.25578,3.7384-2.0354,1.3281-3.5306-4.2824-5.5936-15.109-5.5558-17.799,0.0621-26.969,9.2308-26.99,26.986-0.0194,16.117,6.1008,24.914,19.725,28.35,4.531,1.143,15.516,0.58638,20.016-1.0142zm29.629-14.21c-0.33407-8.3875-0.89348-20.2-1.2431-26.25l-0.63571-11-5.2295-0.30155-5.2295-0.30155,0.48227,10.802c0.26525,5.9408,0.75342,17.889,1.0848,26.552l0.60255,15.75h5.3878,5.3878l-0.60741-15.25zm-2.3788-50.679c0-2.9252-2.7561-5.0714-6.5124-5.0714-3.9028,0-4.92,1.141-4.0627,4.5568,0.5476,2.1818,1.146,2.4432,5.5941,2.4432,4.2528,0,4.981-0.28194,4.981-1.9286z"/>
   <path id="path2842" fill="#aadbf1" d="m350.44,619.23c-10.379-4.2681-18.075-12.024-22.832-23.01-1.3182-3.0445-2.7227-5.5432-3.1211-5.5526-0.39838-0.009-1.3707,1.2204-2.1607,2.7329-3.7761,7.2293-11.317,11.422-21.648,12.035-9.868,0.58565-17.252-1.0422-27.111-5.9771-11.7-5.8562-20.704-14.679-26.107-25.583-3.986-8.0442-4.2283-9.0419-4.594-18.921-0.33978-9.1789-0.58194-10.347-2.0203-9.7453-0.89884,0.37601-3.6593,0.8956-6.1343,1.1546-7.2242,0.75612-14.91-2.7205-23.105-10.451-23.402-22.076-31.567-57.376-19.423-83.969l2.3778-5.2069-3.0259-3.7931c-7.7174-9.6741-10.347-18.727-10.252-35.293,0.0553-9.6417,0.58928-14.444,2.335-21,6.9975-26.279,23.006-45.437,39.997-47.868l4.5626-0.65264,1.1601-7.9901c2.141-14.745,8.0818-26.149,19.072-36.608,10.835-10.312,21.162-14.439,34.217-13.676,9.9222,0.57995,18.815,4.7398,27.499,12.863,3.4874,3.2622,6.5878,5.9314,6.8899,5.9314,0.30209,0,1.6629-2.4324,3.0239-5.4054,5.3046-11.587,18.829-20.15,34.301-21.718,27.915-2.8295,48.973,9.4664,58.562,34.195,1.2643,3.2605,2.5773,5.9282,2.9178,5.9282s1.8641-1.7966,3.3858-3.9923c11.13-16.061,38.385-17.26,58.94-2.5916,11.402,8.1362,19.876,21.4,22.615,35.398,1.1997,6.1304,0.80612,27.116-0.62438,33.292-0.56376,2.4341-0.32554,2.6437,3.6035,3.1707,7.5577,1.0137,15.504,9.5521,19.996,21.485,5.2707,14.002,6.2493,19.875,6.7036,40.238,0.38167,17.106,0.17903,20.666-1.6503,29-4.8848,22.253-16.416,37.286-31.517,41.089-4.7756,1.2025-4.7763,1.2033-4.1699,4.807,2.3661,14.061,0.99092,25.284-4.5153,36.848-12.297,25.826-40.578,40.201-57.902,29.431-5.1615-3.2086-5.9744-3.1444-5.9744,0.47157,0,6.9123-9.0028,20.932-17.77,27.673-12.928,9.9395-23.823,13.691-39.662,13.657-9.326-0.02-11.977-0.39736-16.84-2.397zm-32.111-79.769c0.4045-0.65449,0.59305-8.417,0.41901-17.25-0.17405-8.833-0.59094-32.26-0.92644-52.06l-0.60999-36-9.8524-0.28745c-6.284-0.18333-10.347,0.12325-11.219,0.84648-1.3783,1.1439-14.75,34.361-24.431,60.691-3.0191,8.2109-5.7836,14.25-6.5232,14.25-1.8353,0-23.829-53.014-28.527-68.762-0.69926-2.344-1.8331-4.728-2.5195-5.2977-0.68648-0.56972-4.3262-0.90188-8.0882-0.73812l-6.84,0.29774-0.28381,17.5c-0.31588,19.477,1.7414,45.474,4.8913,61.811,2.7274,14.145,3.1056,14.951,7.3939,15.756,1.9755,0.3706,3.8501,0.41554,4.1658,0.0999,0.31569-0.31568-0.15804-5.6572-1.0527-11.87-1.7881-12.417-4.6145-45.2-4.6145-53.523,0-5.2313,1.1581-6.8846,2.4678-3.5228,0.37496,0.9625,2.7237,7.375,5.2195,14.25,4.7364,13.047,13.991,35.78,19.177,47.107,2.9949,6.5406,3.072,6.613,7.7198,7.25,9.4801,1.2994,8.7681,1.8921,13.342-11.107,7.5747-21.527,20.413-55.733,21.412-57.047,2.1554-2.8375,2.6354,2.0592,2.7739,28.297,0.0784,14.85,0.42278,31.95,0.76531,38l0.62278,11,6.5,0.5774c3.575,0.31757,6.8109,0.65507,7.191,0.75,0.38004,0.0949,1.0219-0.36289,1.4264-1.0174zm43.383-19.376c0-12.264,0.41786-21.347,1.0352-22.5,0.93831-1.7532,2.1996-1.9343,13.477-1.9343,14.894,0,12.452-2.3803,23.928,23.321,4.4645,9.9987,8.4734,18.75,8.9086,19.447,0.58972,0.94473,2.8747,1.1036,8.9714,0.62376,4.4991-0.3541,8.4875-0.9245,8.8632-1.2676,0.74051-0.6762-13.237-32.126-17.544-39.477-1.4513-2.4765-2.6388-4.9759-2.6388-5.5543,0-0.57838,1.6875-1.9213,3.75-2.9843,9.2485-4.7665,14.46-14.073,14.58-26.039,0.14587-14.495-5.0601-22.972-16.693-27.183-5.6885-2.0591-8.2743-2.2523-35.387-2.6436l-29.25-0.42221v53.59,53.59h9,9v-20.566zm0.63848-38.934c-0.95102-2.4783-0.74246-30.788,0.23821-32.335,0.66666-1.0517,4.5713-1.2638,18.414-1,19.468,0.37092,20.629,0.72774,25.459,7.8246,4.9295,7.2429,1.8558,19.577-6.0001,24.076-3.951,2.2629-5.4181,2.4574-20.861,2.7662-14.76,0.29505-16.683,0.14662-17.25-1.3318zm94.975,53.379c1.1386-0.91798,1.695-4.5395,3.4221-22.273,1.5149-15.554,0.55425-14.216,10.696-14.894,16.656-1.113,24.663-5.6465,29.847-16.899,2.7008-5.862,2.9091-7.1764,2.915-18.389,0.006-11.685-0.091-12.234-3.0026-16.945-2.1148-3.4223-4.4487-5.6102-7.8542-7.3627-4.3984-2.2635-6.5844-2.5795-23.703-3.4265-10.372-0.51315-19.483-0.69305-20.247-0.39977-1.1176,0.42887-1.5254,6.0792-2.0836,28.872-0.67226,27.451-1.9063,53.063-3.2381,67.203l-0.64652,6.8645,6.3905-0.72589c3.5148-0.39923,6.8915-1.1298,7.5039-1.6236zm5.7777-50.303c-0.35841-0.93401-0.25553-9.4334,0.22863-18.887l0.88029-17.189,10-0.27179c11.601-0.31531,15.629,1.159,18.673,6.8334,2.7339,5.0977,2.4934,15.358-0.49295,21.031-3.4208,6.4979-8.6135,9.0406-19.761,9.6762-7.7168,0.43999-8.9614,0.28427-9.5279-1.1921zm37.007-80.412c0.28406-0.45963,0.17155-2.1254-0.25003-3.7017-0.56235-2.1027-1.615-3.0859-3.9523-3.6916-4.5492-1.1788-5.8244-3.8001-8.1544-16.762-3.9951-22.225-9.1551-37.929-13.168-40.077-1.1246-0.60186-2.2631-0.87595-2.53-0.60907-0.26687,0.26687,0.40826,3.5658,1.5003,7.331,2.6543,9.1516,3.8673,15.278,6.156,31.091,1.9252,13.302,4.225,20.557,7.3283,23.119,3.4798,2.8726,12.004,5.0247,13.07,3.2997zm-250.85-3.8342c6.0726-2.0692,12.584-8.4528,14.226-13.946,1.8787-6.2876,1.5538-14.34-0.72968-18.085-2.4773-4.063-6.3817-6.069-15.382-7.9029-10.462-2.132-12.556-5.4758-7.7619-12.396,2.9408-4.2446,8.7178-6.4705,16.833-6.4861,6.3992-0.0123,7.4152-0.27787,8.8392-2.3103,0.88489-1.263,1.3349-3.0103,1.0001-3.883-0.84789-2.2096-12.506-1.3269-18.708,1.4164-9.4029,4.1593-17.282,13.758-18.482,22.514-0.89498,6.5296,1.6064,8.7756,12.33,11.071,6.434,1.3774,8.6502,2.3184,10.25,4.3522,2.5266,3.2121,2.5952,6.8232,0.21388,11.264-2.9026,5.4121-7.3377,7.2996-15.673,6.6699-3.85-0.29086-8.1784-0.81286-9.6186-1.16-2.205-0.53149-2.7177-0.23657-3.2457,1.8674-0.34491,1.3742-0.88892,3.1809-1.2089,4.0148-0.63583,1.657,2.0783,3.4978,7.0733,4.7974,4.1493,1.0796,14.262,0.17259,20.045-1.7978zm204.34-2.6374c5.1257-3.392,5.681-3.3675,6.962,0.30727,0.89729,2.574,1.5502,3,4.5978,3,3.4398,0,3.5517-0.11848,3.5413-3.75-0.017-5.952-2.8376-30.973-3.9626-35.151-1.5908-5.9078-5.1092-10.39-10.102-12.87-8.1048-4.0258-26.925-4.2985-26.925-0.39006,0,0.94392,0.66837,2.6704,1.4853,3.8367,1.2873,1.8379,1.987,2.004,5.25,1.2464,5.7431-1.3335,12.042-1.0885,15.297,0.59506,3.3062,1.7097,5.9673,6.1309,5.9673,9.9144,0,3.0061-1.148,3.3566-12.5,3.8164-14.35,0.58122-19.049,4.7894-18.31,16.398,0.48282,7.5825,2.5415,10.872,8.8684,14.169,6.0433,3.1497,14.06,2.696,19.83-1.1221zm-14.965-7.6158c-3.0711-3.0711-3.6247-6.1012-1.9294-10.56,1.2954-3.4072,6.4574-5.5167,13.499-5.5167,5.0448,0,5.6467,0.23637,6.5321,2.5651,3.3251,8.7456-2.0797,16.435-11.552,16.435-2.675,0-4.3936-0.76699-6.5497-2.9231zm-125.25,7.0881c10.166-5.1865,15.803-16.319,15.178-29.978-0.67598-14.772-7.8111-22.852-21.123-23.921-17.879-1.4352-30.912,9.5688-32.403,27.359-0.84285,10.054,0.87547,16.312,6.026,21.946,2.2838,2.4985,5.9424,5.195,8.1459,6.0038,5.7008,2.0925,18.809,1.3275,24.176-1.4109zm-20.487-8.1907c-4.5374-2.7664-6.4707-7.8452-6.3942-16.797,0.11029-12.908,6.3193-21.177,15.902-21.177,9.5523,0,13.694,5.4254,13.74,18,0.022,6.0133-0.46461,8.4908-2.4548,12.499-4.414,8.8886-13.259,12.069-20.792,7.4758zm88.56,8.4662c2.7461-1.131,3.2476-1.8503,3.2347-4.6396-0.0243-5.24-0.92066-5.9389-5.5171-4.3019-5.1455,1.8326-13.837,1.8809-17.267,0.0959-6.736-3.5048-9.3761-8.9175-9.4035-19.279-0.0414-15.624,9.3505-22.614,24.636-18.335,2.5438,0.71221,4.8797,1.0402,5.191,0.72887,0.31133-0.31133,0.63593-2.0103,0.72133-3.7756,0.13604-2.812-0.27822-3.3688-3.3447-4.4959-5.7529-2.1143-19.702-1.7559-25,0.64242-9.7774,4.4259-14.121,11.33-14.79,23.51-0.97144,17.687,6.6898,28.779,21.71,31.432,5.6388,0.99613,15.474,0.21101,19.83-1.583zm28.862-23.691c-0.38533-13.888-0.95971-26.283-1.2764-27.546-0.52727-2.1027-1.0504-2.2714-6.2058-2-3.0965,0.16297-5.6171,0.74632-5.6013,1.2963,0.80668,28.12,1.7781,52.175,2.1302,52.75,0.25255,0.4125,2.978,0.75,6.0565,0.75h5.5974l-0.70059-25.25zm-2.4576-42.75c-0.19-1.925-0.415-3.5515-0.5-3.6145s-2.517-0.41599-5.4045-0.78445l-5.25-0.66991v3.9511c0,4.5418,0.78403,5.0808,7,4.8122l4.5-0.19443-0.34546-3.5z"/>
   <path id="path2840" fill="#8fcfed" d="m354,620.2c-10.761-3.3631-20.812-12.654-25.826-23.874-1.6278-3.6421-3.2684-6.634-3.6457-6.6488s-1.7088,1.793-2.959,4.0173c-7.3357,13.052-27.133,15.37-47.334,5.543-20.153-9.8039-32.715-29.4-31.309-48.841l0.42686-5.9013-3.5694,0.80159c-13.576,3.0487-26.964-4.7094-38.886-22.534-14.399-21.527-17.87-47.592-9.1324-68.58l3.1294-7.5171-2.957-3.7577c-7.3807-9.3791-10.223-19.066-10.223-34.84,0-33.931,19.433-65.206,43-69.205l4.5-0.76349,0.63853-7.4749c1.999-23.401,21.892-46.126,43.971-50.232,11.922-2.2172,25.279,2.5406,37.018,13.186l6.6278,6.0103,3.1319-6.3617c3.8938-7.9095,9.1532-12.739,18.984-17.433,7.2644-3.4686,8.2094-3.6594,19.779-3.9933,13.653-0.39396,19.758,0.85625,29.55,6.0506,10.412,5.524,20.628,18.356,24.758,31.101,0.67764,2.091,1.5884,3.666,2.024,3.5,0.43555-0.16599,2.3239-2.3268,4.1963-4.8018,4.6063-6.0887,12.321-10.55,20.893-12.082,5.8731-1.0496,8.1581-0.99158,15.142,0.38434,25.302,4.9847,43.151,25.632,45.392,52.508,0.57861,6.9381-0.76086,22.828-2.2519,26.713-0.41148,1.0723,0.156,1.4766,2.0725,1.4766,11.062,0,21.476,14.475,26.857,37.328,1.8362,7.7989,2.1534,12.092,2.1181,28.672-0.0358,16.814-0.34094,20.602-2.2151,27.5-5.5179,20.309-15.756,33.49-29.182,37.568l-6.9195,2.1017,0.70806,3.1653c0.38944,1.7409,0.67944,8.1153,0.64445,14.165-0.0574,9.9254-0.37357,11.782-3.2366,19-5.9558,15.016-19.655,29.335-32.923,34.413-9.9992,3.8265-24.642,2.1917-29.149-3.2542-2.0911-2.5269-2.8145-2.0293-3.4004,2.3388-2.2315,16.637-21.516,35.032-42.372,40.416-7.3895,1.9078-22.17,1.9792-28.07,0.1356zm7.9147-78.799c0.11039-0.1375,0.44789-10.15,0.75-22.25l0.54929-22,12.708-0.27956c12.555-0.2762,12.727-0.24978,14.329,2.1947,0.89166,1.3608,5.3937,10.937,10.005,21.28l8.3834,18.805,4.2878,0.3268c5.8303,0.44438,14.788-0.74479,14.788-1.9632,0-1.7729-15.965-36.347-18.519-40.106-1.3645-2.0081-2.481-3.8862-2.481-4.1734,0-0.28728,2.422-2.0716,5.3821-3.9652,9.3308-5.9688,13.618-14.145,13.618-25.972,0-9.5205-2.4146-16.386-7.4774-21.26-5.4898-5.2852-11.361-7.261-25.023-8.4205-13.754-1.1673-47.542-1.2258-49.341-0.0854-1.1009,0.69776-1.2801,10.236-1,53.235,0.18767,28.812,0.70527,52.947,1.1502,53.635,0.54196,0.83738,3.5954,1.25,9.25,1.25,4.6425,0,8.5313-0.1125,8.6417-0.25zm1.2824-59.934c-0.2948-0.76822-0.41159-8.5787-0.25954-17.357l0.27646-15.96,16.5,0.0142c18.528,0.0159,22.564,1.0832,26.114,6.9058,2.6742,4.3854,2.5957,14.903-0.14473,19.398-3.5878,5.8848-9.1231,7.5425-26.71,7.9994-12.392,0.32188-15.341,0.13481-15.776-1.0009zm-44.335,6.1835c-0.19375-28.875-0.68223-52.853-1.0855-53.286-0.40327-0.43203-5.6448-0.65703-11.648-0.5l-10.914,0.2855-6.7035,16.5c-3.6869,9.075-10.187,25.838-14.446,37.25-4.2582,11.412-8.265,20.75-8.9039,20.75-1.8252,0-15.112-32.104-28.35-68.5l-1.8186-5h-8.3891-8.3891l0.15962,20.5c0.0878,11.275,0.88037,27.339,1.7613,35.698,1.75,16.606,5.1216,35.046,6.7714,37.033,1.1534,1.3898,8.5425,3.8666,9.2939,3.1153,0.26035-0.26034-0.39819-6.5199-1.4634-13.91-2.5015-17.355-5.0963-52.985-4.0007-54.935,0.7494-1.3342,0.90129-1.3344,1.3632-0.001,7.4733,21.565,24.707,63.369,27.186,65.945,1.8444,1.9166,12.523,3.1866,14.127,1.68,0.65892-0.61889,3.6492-8.1003,6.645-16.625,4.4043-12.533,14.896-40.958,18.178-49.25,0.381-0.9625,1.0219-1.75,1.4243-1.75,0.40239,0,1.023,13.838,1.3792,30.75,0.80561,38.256,1.3985,46.001,3.5681,46.609,0.88393,0.24757,4.5321,0.38069,8.1071,0.29581l6.5-0.15481-0.35228-52.5zm139.2,47.057c0.98953-0.98953,3.5424-21.645,3.6132-29.235,0.0613-6.5727,1.6473-7.8214,9.9336-7.8214,14.218,0,24.129-5.2064,29.046-15.257,9.7208-19.872,5.0311-41.117-10.248-46.426-4.2888-1.4903-8.479-1.8038-24.187-1.8096l-19-0.007-0.63243,32.5c-0.58767,30.2-2.1882,61.273-3.4463,66.905-0.29547,1.3228-0.0459,2.7088,0.55452,3.0799,1.3926,0.86067,13.157-0.71825,14.367-1.9282zm6.1085-50.135c-0.85552-1.3843-0.64536-33.254,0.23441-35.546,0.72889-1.8995,17.145-1.891,21.697,0.0112,6.8418,2.8587,9.7504,10.834,7.6466,20.968-2.0993,10.112-7.3153,13.846-21.156,15.142-5.771,0.54057-7.8194,0.4006-8.4227-0.57553zm36.533-82.672c-0.0203-3.65-0.96616-4.9563-4.1711-5.7606-4.2623-1.0698-5.835-3.7309-7.4676-12.636-4.0705-22.203-10.15-41.838-13.641-44.057-0.66287-0.42131-1.9403-0.77292-2.8388-0.78134-1.4583-0.0137-1.3927,0.8164,0.61072,7.7347,2.081,7.186,2.9644,11.837,7.0393,37.06,0.82725,5.1205,2.4044,11.075,3.5048,13.232,2.3513,4.609,7.7684,7.8497,13.229,7.9141,3.4386,0.0405,3.7487-0.18418,3.7347-2.7058zm-252.92-0.85764c7.8542-2.3247,15.263-9.9029,16.808-17.192,1.5418-7.2739,1.3901-10.016-0.82359-14.892-2.2752-5.0114-6.6433-7.5536-16.078-9.3572-8.6709-1.6576-9.9754-2.436-9.9754-5.9518,0-3.8078,4.977-9.5069,9.6489-11.049,1.9519-0.64419,6.4483-0.98664,9.992-0.76099,6.3738,0.40586,6.4649,0.37499,8.4714-2.8716,1.1156-1.805,1.7451-3.74,1.399-4.3001-0.95967-1.5528-12.591-1.2132-17.583,0.51331-9.7052,3.3567-18.132,12.116-20.454,21.261-2.264,8.916,0.32297,11.702,13.212,14.23,8.384,1.6441,10.777,4.1809,10.047,10.653-0.62561,5.5504-3.4552,8.5623-9.8416,10.476-3.9273,1.1766-8.23,0.73509-16.515-1.6948-1.7344-0.5087-2.3294-0.0309-3.25,2.61-0.6198,1.778-1.1269,4.0174-1.1269,4.9765,0,4.4313,15.63,6.4398,26.068,3.3501zm199.37-0.39236c1.2533,0,3.9364-1.125,5.9626-2.5,4.5962-3.1191,5.984-3.1367,7.3706-0.0935,0.67953,1.4914,2.3091,2.6728,4.2854,3.1069,3.689,0.81023,5.0189-0.53351,4.4203-4.4663-0.21322-1.4009-0.63968-6.3721-0.94769-11.047-1.985-30.129-6.3159-37.615-23.078-39.895-7.1922-0.97795-15.778-0.18298-17.59,1.6286-0.71495,0.71495-0.53216,2.011,0.58958,4.1802,1.6021,3.0981,1.7017,3.1327,6.8351,2.3692,7.467-1.1106,12.384-0.72666,15.318,1.1961,2.7235,1.7845,5.8298,7.9348,5.0431,9.985-0.30592,0.7972-3.8536,1.4327-10.067,1.8034-15.8,0.94262-21.097,4.9806-21.069,16.061,0.0247,9.8957,4.8428,15.794,14.485,17.732,1.925,0.3869,4.0993,0.53145,4.8318,0.32122,0.73248-0.21024,2.3572-0.38224,3.6104-0.38224zm-4.9422-8.9454c-3.8951-1.5942-5.644-4.5909-5.3125-9.1025,0.40348-5.4903,3.4367-7.8515,11.103-8.6427,7.3853-0.76224,8.7099,0.32336,8.7099,7.1386,0,5.7009-1.9087,8.4368-7.3151,10.485-3.2509,1.2317-4.4234,1.2515-7.1849,0.12125zm-129.22,5.7287c6.0434-2.5998,12.074-9.3635,14.366-16.113,2.0965-6.1732,2.3256-18.489,0.4465-24.006-3.729-10.95-14.976-16.7-28.427-14.533-7.8279,1.2606-12.563,3.8071-17.492,9.4068-4.9732,5.6498-7.3337,12.385-7.4476,21.25-0.13326,10.367,3.4702,18.676,9.9371,22.913,7.0028,4.5884,19.38,5.0569,28.617,1.0832zm-18.211-8.5349c-6.2048-3.1639-7.576-6.1802-7.5342-16.574,0.0411-10.211,1.2761-13.657,6.4566-18.016,6.8623-5.7743,15.894-4.2455,19.827,3.3561,1.9987,3.863,2.2654,5.5945,1.9227,12.485-0.52078,10.471-3.1584,15.878-9.0519,18.553-5.2215,2.3706-7.2861,2.4053-11.62,0.19525zm83.425,9.6483c5.9423-1.4963,7.6036-3.5108,6.8294-8.2815-0.52274-3.2213-0.93273-3.7183-2.7202-3.2975-12.641,2.9756-13.421,3.0537-17.699,1.772-7.869-2.3576-11.905-9.2209-11.905-20.244,0-6.7679,3.184-13.455,7.8979-16.588,4.036-2.6821,9.894-2.9484,16.168-0.73497,5.0641,1.7867,6.8693,0.76281,7.2221-4.0964,0.19382-2.67-0.22616-3.0816-4.7875-4.6918-3.6324-1.2823-7.1881-1.6709-13-1.4207-17.561,0.75588-26.813,10.454-26.888,28.186-0.0369,8.7215,1.3354,13.934,5.2153,19.808,2.678,4.0548,9.2877,8.4898,14.504,9.7324,4.8501,1.1552,14.286,1.0844,19.164-0.14391zm32.957-20.147c-0.39761-11.138-0.99962-23.397-1.3378-27.242l-0.61487-6.9924-4.7479-0.86537c-8.1377-1.4832-7.7825-2.5977-7.1914,22.562,0.28802,12.259,0.76206,24.651,1.0534,27.538l0.52974,5.25h6.5158,6.5158l-0.72292-20.25zm-2.4527-47.128c0-4.4944-1.8474-5.802-7.6723-5.4304-4.4717,0.28525-4.8516,0.517-5.1523,3.1424-0.57139,4.9899,0.23874,5.6655,6.7932,5.6655h6.0314v-3.3776z"/>
   <path id="path2838" fill="#72c4e9" d="m356.46,620.56c-12.879-3.0355-25.004-14.485-29.826-28.164-0.72698-2.0625-1.6722-3.75-2.1006-3.75-0.42834,0-1.6441,1.6875-2.7018,3.75-4.2673,8.3216-12.14,12.387-23.9,12.344-14.225-0.0524-28.375-6.2201-39.468-17.204-10.815-10.709-16.616-25.78-15.041-39.078,0.6004-5.0694,0.57991-5.1187-1.8007-4.3348-1.3244,0.43608-4.7537,0.99783-7.6207,1.2483-9.7987,0.85616-21.759-7.153-31.927-21.379-15.618-21.851-19.036-52.347-8.2458-73.56l1.889-3.7134-2.9596-3.3708c-7.8738-8.9678-11.504-21.889-10.733-38.203,0.64747-13.7,3.3446-24.329,9.1349-36,8.5418-17.217,18.155-26.13,31.583-29.281l6.9713-1.6361,0.0148-4.0414c0.0669-18.284,15.058-41.195,32.485-49.647,6.5978-3.1998,7.6033-3.3948,17.5-3.3948,9.6761,0,11.015,0.24408,17.064,3.1106,3.8281,1.814,9.3001,5.6698,13.127,9.25,3.6097,3.3767,6.9557,6.1377,7.4356,6.1356,0.47991-0.002,1.7473-2.1396,2.8164-4.75,3.9919-9.7471,15.009-18.419,27.688-21.794,7.9346-2.1119,22.317-1.867,30.013,0.51104,7.2677,2.2456,16.822,7.6916,21.669,12.351,4.9537,4.7625,10.01,12.879,12.901,20.709,1.4166,3.8369,2.8951,6.9761,3.2857,6.9761,0.39055,0,1.9764-2.0033,3.5241-4.4518,7.4762-11.828,24.258-16.532,41.711-11.693,17.054,4.729,32.013,19.492,37.638,37.145,2.3588,7.4024,3.1623,19.067,1.9585,28.431-1.8606,14.473-1.9559,13.962,2.721,14.599,10.922,1.4879,19.412,14.591,24.603,37.97,2.993,13.482,3.2875,38.058,0.60194,50.234-5.0721,22.996-14.652,36.368-29.704,41.465-7.3319,2.4826-6.8267,1.1869-5.576,14.301,1.5621,16.378-4.6609,32.234-17.879,45.555-11.2,11.288-18.652,14.914-30.682,14.932-7.9759,0.0118-8.9589-0.22019-13.878-3.2757-2.9119-1.8086-5.4128-3.1586-5.5576-3-0.1448,0.15863-0.98528,3.1302-1.8677,6.6035-4.4632,17.567-21.012,32.038-43.073,37.665-6.4495,1.645-17.78,1.8519-23.794,0.4345zm6.2541-101.41,0.5-22,12.721-0.27966,12.721-0.27966,3.0377,6.0177c1.6708,3.3097,5.7677,12.211,9.1044,19.78,8.6402,19.6,7.2533,18.179,17.129,17.552,4.558-0.28955,8.8078-1.0356,9.444-1.658,0.87172-0.85273-0.87179-5.5916-7.076-19.233-4.528-9.9557-9.211-19.475-10.407-21.154-2.9185-4.0986-2.7391-5.7676,0.77635-7.2238,4.0159-1.6634,9.5963-7.2531,12.307-12.327,1.9299-3.6129,2.2403-5.7172,2.2416-15.194,0.002-13.291-2.0649-18.73-8.9062-23.436-8.5064-5.8525-13.087-6.5248-44.592-6.5451l-28.5-0.0184-0.25994,53c-0.14297,29.15-0.0381,53.579,0.2331,54.288,0.3645,0.95202,2.909,1.2127,9.7599,1l9.2669-0.28775,0.5-22zm0.66667-38.167c-0.36667-0.36666-0.66667-7.5508-0.66667-15.965,0-14.728,0.0818-15.342,2.1951-16.473,3.5819-1.917,29.718-0.59215,34.492,1.7484,5.3258,2.6107,8.3126,7.4742,8.3126,13.536,0,8.5072-3.7837,14.298-10.899,16.681-3.6142,1.2105-32.291,1.6152-33.434,0.47185zm-44.305,6.4167c-0.46012-36.9-1.0014-53.476-1.763-53.985-1.3134-0.87796-17.159-0.98999-20.316-0.14363-1.8325,0.49127-3.9399,4.9553-12.15,25.736-5.4629,13.828-11.813,30.317-14.111,36.642-2.2981,6.325-4.5568,11.891-5.0194,12.369-0.46523,0.48068-1.71-0.85987-2.7858-3-3.2014-6.3692-16.662-39.835-22.271-55.369-2.8795-7.975-5.7328-14.831-6.3408-15.235-1.3798-0.91706-9.2725-0.98189-13.622-0.1119l-3.267,0.65341,0.58553,24.097c0.8175,33.642,5.3028,67.372,9.353,70.333,1.9705,1.4408,8.1736,2.7689,9.0128,1.9296,0.31569-0.31568-0.18986-5.852-1.1234-12.303-1.8095-12.504-4.4884-42.6-4.523-50.813-0.0128-3.0499,0.33423-4.5853,0.90413-4,0.50871,0.5225,3.2645,7.25,6.1239,14.95,4.842,13.039,15.843,39.493,19.753,47.5,1.6215,3.3205,2.0588,3.5449,8.5273,4.3762,3.903,0.50155,7.1823,0.50155,7.6699,0,0.46847-0.48189,3.9744-9.6512,7.7909-20.376,10.388-29.19,17.352-47.03,18.164-46.528,0.39842,0.24624,1.0009,16.656,1.3388,36.467,0.38766,22.727,1.0135,36.765,1.696,38.04,0.94659,1.7687,2.0774,2.021,9.0595,2.021h7.9779l-0.664-53.25zm136.84,48.643c1.4876-0.2924,2.927-1.2878,3.1988-2.2121,0.27178-0.92427,1.2221-8.8594,2.1119-17.634,0.88975-8.7743,1.8005-16.249,2.0238-16.61,0.22335-0.36139,4.302-0.97318,9.0636-1.3595,22.028-1.7873,31.819-11.772,33.146-33.801,0.87317-14.492-3.0367-23.27-12.387-27.812-4.4383-2.1559-6.5587-2.4109-24.361-2.9303-10.725-0.31289-20.062-0.40024-20.75-0.19411-0.92812,0.27826-1.2515,4.2741-1.2559,15.518-0.007,18.896-1.6513,59.301-3.0475,74.903-0.57881,6.4679-0.75037,12.249-0.38125,12.846,0.62881,1.0174,5.1261,0.76369,12.639-0.71308zm7.9039-63.52c0.0597-6.8048,0.3972-15.072,0.75-18.372l0.64147-6,5-0.32443c9.5255-0.61807,15.38,0.68717,19.333,4.3106,3.4483,3.1601,3.6355,3.6693,3.9995,10.877,0.7444,14.741-5.1078,20.699-21.082,21.463l-8.751,0.41839,0.10853-12.372zm36.891-71.357c0-3.6162-1.1545-4.9184-5.2211-5.8894-3.7866-0.90408-4.6151-2.9498-7.3904-18.247-2.5533-14.074-6.2943-27.271-9.5446-33.669-1.7669-3.4781-6.1364-6.7508-7.3684-5.5188-0.28384,0.28385,0.79162,5.6444,2.3899,11.912,1.5983,6.268,3.8795,18.146,5.0694,26.396,3.0079,20.856,6.2994,26.804,15.75,28.464,5.2499,0.92205,6.3148,0.34053,6.3148-3.4483zm-251.97-0.0915c10.267-3.2618,16.94-12.716,16.959-24.026,0.0168-10.467-4.6384-15.09-18.031-17.905-9.3588-1.9674-10.592-3.0464-8.9986-7.8741,2.179-6.6023,9.4423-10.049,19.901-9.4427,5.5422,0.32113,5.6157,0.28857,7.5934-3.3663,1.0984-2.0298,1.6317-4.0548,1.1851-4.5-0.44658-0.44518-3.8108-0.79233-7.4761-0.77145-9.1685,0.0522-17.536,3.8997-24.1,11.082-4.7039,5.1468-8.0646,12.232-8.0646,17.003,0,4.1874,3.936,7.2569,11.5,8.9686,3.85,0.87124,8.0191,1.988,9.2647,2.4818,5.2904,2.0971,5.3766,10.5,0.15896,15.502-2.8389,2.7215-3.5866,2.9234-10.738,2.8995-4.2274-0.0141-9.1391-0.40595-10.915-0.87077-3.4242-0.89626-3.5556-0.75552-5.6874,6.0908-1.8834,6.0486,14.442,8.8617,27.448,4.7296zm204.89-2.7513c2.2213-1.47,4.2618-2.6727,4.5345-2.6727,0.27267,0,1.2072,1.3757,2.0766,3.0571,1.3898,2.6877,2.0274,3.02,5.2757,2.75l3.6948-0.30707-0.3198-9.5c-0.49608-14.736-2.7923-30.319-5.1482-34.937-4.3121-8.4524-15.947-13.088-29.338-11.688-7.0364,0.73545-8.1885,1.5198-7.3194,4.9827,1.0624,4.2328,3.1683,5.6346,6.8699,4.573,9.9093-2.842,19.116,0.14625,20.326,6.5972,0.37376,1.9923,0.28568,3.991-0.19574,4.4416-0.48141,0.45054-4.9253,1.0079-9.8753,1.2386-14.892,0.69405-20.489,4.947-20.496,15.575-0.004,6.1709,1.7271,10.786,5.2726,14.053,6.2235,5.7352,17.483,6.5748,24.642,1.8375zm-14.464-9.1273c-4.0464-4.0464-3.24-10.571,1.617-13.082,3.9699-2.0529,14.52-1.9711,15.321,0.11878,0.9497,2.4749,0.71252,8.3525-0.42265,10.474-2.7338,5.1082-12.435,6.5708-16.516,2.4901zm-126.44,8.786c9.5535-4.2518,15.892-14.248,16.764-26.439,1.5111-21.12-11.801-33.143-32.044-28.941-11.334,2.3529-19.288,10.251-22.346,22.187-3.9201,15.302,2.0401,29.885,14.023,34.311,5.6294,2.0794,17.702,1.5071,23.602-1.119zm-19.249-9.8394c-4.3966-2.4778-6.1741-6.9663-6.1351-15.492,0.0625-13.685,5.4698-20.988,15.546-20.996,10.422-0.008,14.996,9.7843,11.714,25.084-0.72794,3.3942-2.226,6.4017-4.3352,8.7033-2.7923,3.0469-3.9465,3.5654-8.6377,3.8802-3.6163,0.24266-6.324-0.14908-8.1522-1.1794zm88.122,9.4747,4.3844-1.9893-0.63868-4.6597c-0.35128-2.5628-0.84308-4.8641-1.0929-5.1139-0.24981-0.24981-2.326,0.29473-4.6137,1.2101-4.6997,1.8804-13.135,2.2566-17.012,0.75851-6.9112-2.6706-11.084-13.709-9.0363-23.905,1.4352-7.1465,4.1565-10.733,9.7715-12.877,4.4228-1.6891,4.9201-1.6879,11.581,0.0281,7.8151,2.0132,8.8666,1.6071,9.1127-3.5195,0.24123-5.0251-3.274-6.4007-16.341-6.3945-12.112,0.006-16.05,1.4872-22.278,8.3813-11.426,12.648-7.5639,39.373,6.7718,46.855,4.9344,2.5753,7.5998,3.0841,16.506,3.1512,6.4512,0.0486,9.5568-0.4155,12.884-1.9253zm29.902-7.6184c0.49936-15.966-1.3494-45.457-2.9117-46.447-0.756-0.47887-3.7859-0.87757-6.7332-0.88599l-5.3586-0.0153,0.72424,27.25c0.43379,16.321,1.1431,27.769,1.7685,28.545,0.68822,0.85356,2.9502,1.1945,6.6344,1l5.5901-0.29513,0.28622-9.1517zm-2.968-58.73c0.17502-2.135-0.05-4.2319-0.5-4.6598-0.45002-0.42792-3.2932-0.93112-6.3182-1.1182l-5.5-0.34018v4.4902c0,4.1749,0.21064,4.5368,3,5.154,1.65,0.36508,4.35,0.5945,6,0.50982,2.7317-0.14021,3.0285-0.50118,3.3182-4.0358z"/>
   <path id="path2836" fill="#53b7e4" d="m351.61,618.29c-6.5852-2.7089-10.039-5.071-15.079-10.312-3.6516-3.7974-9.8135-14.354-9.8135-16.813,0-0.70181-0.62457-1.7944-1.3879-2.4279-1.1201-0.92963-1.9658-0.12796-4.3829,4.1549-2.2962,4.0686-4.2472,6.0003-8.3621,8.2794-4.9806,2.7586-6.0872,2.9682-15.367,2.9104-8.3272-0.0519-11.12-0.50103-16.696-2.685-14.138-5.5372-26.071-15.758-31.664-27.122-3.8886-7.8999-5.0847-13.28-5.1148-23.006l-0.0245-7.875-3.25,0.83388c-10.366,2.6598-19.682-0.65503-29.744-10.584-22.239-21.944-29.169-56.856-16.502-83.126l1.7484-3.6259-4.0486-5.3741c-10.057-13.349-12.503-31.531-7.2135-53.611,6.2267-25.99,22.49-45.864,39.277-47.996,5.9815-0.75968,6.733-1.6787,6.733-8.2334,0-13.547,10.06-31.647,22.991-41.368,9.0719-6.8194,15.667-9.0863,26.561-9.1299,8.4687-0.0339,9.5323,0.20256,16.5,3.6678,4.11,2.044,10.433,6.4136,14.11,9.75,3.664,3.3253,6.9084,6.046,7.2099,6.046,0.30143,0,1.0602-1.7094,1.6862-3.7987,4.0343-13.465,19.971-23.642,38.942-24.866,24.312-1.5688,45.527,12.447,53.537,35.371,1.299,3.7176,2.8105,6.9088,3.3588,7.0916,0.54832,0.18278,1.9056-1.4488,3.0162-3.6257,2.9722-5.8261,9.4742-10.903,16.902-13.197,16.348-5.0494,34.684,0.40542,48.689,14.484,14.677,14.754,18.85,31.796,14.886,60.79-0.63429,4.6398-0.58758,4.75,2.0128,4.75,12.051,0,22.319,16.065,27.164,42.5,2.3271,12.698,1.5799,39.744-1.4033,50.796-5.459,20.224-16.188,33.21-30.358,36.743l-4.6954,1.1709,0.57703,11.645c0.68773,13.879-0.46047,20.446-5.2289,29.908-9.7049,19.255-26.355,31.498-42.957,31.586-7.2581,0.0384-11.718-1.4972-16.176-5.5698-2.8769-2.6281-3.9533-1.7598-4.5669,3.6842-1.6693,14.81-17.404,30.816-36.999,37.636-7.0781,2.4638-9.7588,2.8731-18.758,2.8642-8.6623-0.009-11.481-0.41408-16.108-2.3171zm9.8746-76.481c0.92122-0.58473,1.4671-6.7903,2-22.735l0.73293-21.93,10-0.29235c5.5-0.16079,11.007-0.0411,12.238,0.266,2.6342,0.65724,3.9842,3.1195,14.27,26.026l7.6335,17,9.3782-0.24884c5.158-0.13686,9.8167-0.68743,10.353-1.2235,1.0583-1.0583-9.8388-26.576-16.239-38.028-1.9981-3.575-3.7649-6.7833-3.9262-7.1296-0.16127-0.34631,1.6387-1.7687,4-3.1608,8.8546-5.2204,13.414-12.841,14.474-24.194,1.3693-14.663-4.8541-25.751-17.181-30.608-5.7576-2.2689-7.2208-2.3781-36.214-2.7017l-30.214-0.33722-0.69514,2.7696c-0.38232,1.5233-0.38702,25.946-0.0104,54.272,0.51748,38.925,0.98383,51.693,1.9096,52.281,1.6156,1.0264,15.867,1.0052,17.492-0.0261zm2.2329-76.645,0-16.689,16.75,0.33995c18.324,0.37189,21.22,1.1334,24.826,6.5275,2.6398,3.9489,2.5969,13.637-0.0806,18.204-3.6584,6.2397-7.8778,7.5424-25.745,7.9488l-15.75,0.35825v-16.689zm-43.889,45.98c-0.21399-16.5-0.66399-40.8-1-54l-0.61092-24-11.102-0.28136c-8.2245-0.20845-11.384,0.0588-12.191,1.0312-1.2696,1.5298-14.414,34.344-22.733,56.75-3.1651,8.525-6.1311,15.917-6.5911,16.426-0.47564,0.52686-2.2942-2.2768-4.2162-6.5-4.4388-9.7534-17.537-42.89-21.712-54.926-1.8122-5.225-3.7236-10.062-4.2476-10.75-1.4661-1.9235-16.1-1.687-17.738,0.28668-0.98893,1.1916-1.1227,5.7391-0.59584,20.25,1.0758,29.626,3.4083,51.419,7.2116,67.378,1.3297,5.5795,2.0219,6.8357,4.2515,7.7156,4.4448,1.754,7.9152,2.33,8.4849,1.4084,0.29691-0.48042-0.28215-6.2544-1.2868-12.831-1.0047-6.5766-2.3325-18.708-2.9507-26.958-0.61825-8.25-1.3843-17.588-1.7023-20.75-0.73553-7.3146,0.86049-7.5652,3.1839-0.5,2.7456,8.3489,15.01,38.696,19.876,49.178,4.9762,10.722,6.0776,11.572,14.987,11.572h5.2986l3.7514-10.75c6.2866-18.015,19.683-53.7,20.481-54.555,0.41288-0.44276,1.0886,11.932,1.5017,27.5,0.41303,15.568,1.0408,32.355,1.395,37.305l0.64401,9,4,0.62992c2.2,0.34645,6.25,0.57145,9,0.5l5-0.12992-0.38908-30zm138.64,24.178c0.74659-0.7466,1.8974-7.5791,2.8162-16.72,2.2033-21.92,1.347-19.955,8.7024-19.973,23.516-0.0589,35.893-12.555,36.138-36.484,0.179-17.432-6.8773-26.131-23.1-28.476-9.9296-1.4357-34.616-1.3153-36.108,0.17611-0.86928,0.86928-1.2072,8.2415-1.2261,26.75-0.0236,23.135-0.4685,34.655-2.5858,66.957l-0.68215,10.407,7.391-0.68691c4.065-0.37781,7.9591-1.255,8.6534-1.9494zm5.8254-51.782c-0.26059-0.76797-0.15923-8.8213,0.22524-17.896l0.69903-16.5,9-0.2674c10.707-0.31813,15.033,1.3311,17.748,6.7674,3.079,6.1636,1.6498,18.14-2.7443,22.995-2.9242,3.2312-8.163,5.0409-16.44,5.6792-6.3745,0.49157-8.1115,0.33231-8.4883-0.77827zm37.084-79.452c0.32844-0.8559,0.19249-2.9672-0.30212-4.6918-0.68048-2.3727-1.6837-3.3389-4.1234-3.9711-4.5725-1.1848-5.8589-3.7892-8.1399-16.479-3.6939-20.55-8.4826-35.722-12.438-39.407-2.3982-2.2343-6.338-2.147-5.8218,0.12904,0.18414,0.81194,1.4237,5.5263,2.7546,10.476,1.3309,4.95,3.3377,15.3,4.4596,23,2.4304,16.681,3.4617,20.902,6.1971,25.368,3.4508,5.6336,15.866,9.6089,17.414,5.5757zm-250.46-3.6969c9.9955-4.616,15.024-12.333,15.103-23.178,0.0782-10.73-4.0748-15.182-16.874-18.089-10.544-2.3948-10.424-2.3325-10.424-5.4118,0-3.587,3.4208-7.9275,7.6358-9.6886,1.815-0.75835,6.6803-1.3788,10.812-1.3788h7.5118l1.9907-3.9021c2.7835-5.4562,1.3142-6.5094-8.2102-5.8849-15.631,1.0249-29.171,12.916-30.513,26.798-0.65396,6.7688,1.3846,8.66,12.192,11.31,7.0307,1.7242,9.2977,2.7336,10.858,4.8345,1.8096,2.4366,1.8588,3.0057,0.59747,6.9109-0.756,2.3406-2.5785,5.146-4.05,6.2344-3.7369,2.7637-11.594,3.3321-17.837,1.2902-2.7883-0.912-5.4394-1.4296-5.8915-1.1502-1.5435,0.95396-3.4575,9.5982-2.3667,10.689,4.4982,4.4982,20.343,4.8302,29.466,0.61741zm200.09-0.22682c1.7698-0.81394,4.0316-2.0514,5.0262-2.75,1.5621-1.0972,2.084-0.89569,3.8334,1.4799,1.6107,2.1872,2.8266,2.75,5.9417,2.75h3.9166l-0.001-6.25c-0.00067-3.4375-0.69449-12.325-1.5418-19.75-2.3251-20.375-6.4641-27.018-18.729-30.064-5.5443-1.3766-21.241-0.82345-22.87,0.80593-0.79801,0.79801-0.58687,2.1461,0.77188,4.9281,1.6114,3.2992,2.2859,3.7957,4.8704,3.5848,13.272-1.0832,16.404-0.7948,18.948,1.7448,1.3771,1.375,2.7823,3.8947,3.1228,5.5994l0.61909,3.0994-9.1806,0.69304c-10.622,0.80183-16.039,2.6663-19.419,6.6836-4.4295,5.2641-4.1968,15.455,0.5036,22.056,4.3075,6.0494,16.733,8.8174,24.188,5.3886zm-11.234-11.318c-3.28-3.28-3.5982-4.6254-2.0546-8.6854,1.2272-3.2276,6.3787-5.5167,12.415-5.5167,5.0872,0,5.1169,0.0278,6.0475,5.654,0.60456,3.6554,0.34833,4.533-2.1346,7.3117-2.0315,2.2734-3.9983,3.3155-7.0234,3.7212-3.725,0.49952-4.5476,0.2176-7.25-2.4848zm-128.84,10.244c6.1545-2.097,12.316-7.5819,15.512-13.808,2.0828-4.0578,2.731-6.9822,3.0834-13.911,0.54958-10.804-0.8541-16.261-5.613-21.821-4.7784-5.5825-10.044-7.8566-18.256-7.8841-13.38-0.0447-22.96,5.4287-28.771,16.438-2.3917,4.531-2.6605,6.1008-2.6605,15.54,0,8.9349,0.33106,11.119,2.221,14.653,2.5762,4.8175,8.4671,10.02,12.779,11.286,4.9432,1.451,16.789,1.1818,21.705-0.49332zm-16.109-10.71c-4.6628-2.3963-6.5337-6.2631-6.9419-14.347-0.64874-12.847,4.2511-21.116,13.104-22.113,5.8958-0.66454,10.419,1.7102,12.432,6.5259,2.3061,5.5192,1.4352,19.643-1.5044,24.4-3.6343,5.8804-11.476,8.4203-17.089,5.5354zm87.285,9.62c3.8553-1.8384,3.9202-1.9697,3.6381-7.3552-0.26498-5.0585-1.2325-5.5579-7.0978-3.6636-15.321,4.9481-24.922-1.8034-24.922-17.526,0-7.7333,1.5165-12.18,5.3634-15.728,3.4695-3.1994,11.625-3.9565,18.261-1.6954,5.2582,1.7916,5.5927,1.6379,7.2563-3.335,1.5054-4.5001,0.47944-5.4954-7.865-7.6298-16.622-4.2514-33.298,3.7816-37.095,17.869-0.6247,2.3173-0.95719,8.2715-0.74001,13.252,0.34017,7.8013,0.80964,9.7793,3.4161,14.393,3.5095,6.2119,9.3011,10.781,16.103,12.703,6.1238,1.7308,18.801,1.043,23.682-1.2849zm30.078,0.71091c1.0892-1.7623-1.5483-53.498-2.7888-54.704-1.6576-1.6112-11.444-2.3406-12.606-0.93961-0.90703,1.0929,0.41098,52.576,1.4164,55.327,0.54272,1.4851,13.081,1.7687,13.979,0.31616zm-3.0794-67.386c-0.15613-4.9585-1.1919-5.8592-7.4269-6.4583-5.5901-0.53713-6.9093,0.33652-6.9375,4.5943-0.0339,5.129,1.5918,6.3011,8.2946,5.9804l6.1901-0.29616-0.1203-3.8203z"/>
   <path id="path2834" fill="#35abe0" d="m355.21,619.25c-9.8511-3.1155-16.796-8.2977-22.433-16.738-2.2251-3.3321-4.5734-7.8198-5.2184-9.9726-1.936-6.4616-3.3816-6.746-6.1854-1.2168-2.9623,5.8417-4.877,7.6628-10.7,10.177-6.7625,2.9201-12.569,3.3822-21.362,1.6998-27.618-5.2841-47.947-30.037-45.065-54.871l0.69129-5.9562-2.8642,0.74015c-1.5753,0.40708-5.2633,0.96313-8.1955,1.2357-7.7652,0.72177-15.99-3.5375-24.353-12.612-21.242-23.048-27.403-56.413-14.931-80.86l2.0809-4.0789-3.6342-4.3238c-7.0251-8.3583-10.335-19.348-10.324-34.284,0.015-21.544,8.642-44.263,21.679-57.094,6.1353-6.0381,12.185-9.2989,20.24-10.909l5.5742-1.1143,0.63876-7.1093c1.2195-13.572,6.8973-25.319,17.355-35.906,19.078-19.313,42.44-19.698,62.233-1.0261,7.6634,7.2293,7.9275,7.234,10.396,0.18713,0.75736-2.1622,3.4743-6.2314,6.0377-9.0424,8.1373-8.9237,19.92-13.68,34.204-13.807,24.279-0.21659,42.715,12.59,50.728,35.236,1.4508,4.1003,3.1242,7.6172,3.7188,7.8154,0.59457,0.19819,1.9864-1.4143,3.0929-3.5833,2.8593-5.6047,10.422-11.91,16.423-13.692,6.5817-1.9546,18.909-1.9067,25.741,0.10001,17.75,5.2136,31.406,19.004,37.041,37.405,2.6678,8.7112,3.1316,25.42,0.98075,35.329-0.69591,3.2061-1.0155,6.079-0.7103,6.3843,0.30524,0.30524,2.199,0.73615,4.2084,0.95758,7.782,0.85757,12.601,5.3494,18.054,16.829,6.7316,14.17,9.9298,32.916,9.042,53-0.84932,19.213-5.0925,34.158-12.724,44.815-5.1259,7.1583-10.873,11.289-19.255,13.839l-6.7946,2.0672,0.79464,4.639c1.3956,8.1473,0.82925,22.185-1.1353,28.139-6.8865,20.873-25.877,38.599-42.652,39.812-8.1382,0.58866-12.025-0.34672-17.917-4.3121-3.2532-2.1893-5.2141-2.9884-5.4309-2.2133-0.18666,0.66717-1.0949,4.138-2.0182,7.713-2.2832,8.84-5.2076,13.49-13.261,21.087-7.4774,7.0538-17.86,12.803-27.75,15.367-7.0947,1.8394-20.449,1.9145-26.04,0.14641zm7.893-78.183c0.33385-0.86998,0.60699-10.995,0.60699-22.5v-20.918h12.338,12.338l5.5569,11.75c3.0563,6.4625,7.4706,16.178,9.8095,21.589l4.2526,9.8391,9.8041-0.33908c5.3923-0.1865,10.262-0.79796,10.822-1.3588,1.0944-1.0966-12.391-32.511-17.282-40.259-1.4518-2.2998-2.6396-4.5646-2.6396-5.0329,0-0.46831,2.3014-2.3428,5.1143-4.1654,9.3513-6.0594,13.434-15.47,12.695-29.259-0.9433-17.596-9.0048-25.127-29.809-27.848-7.4391-0.97289-51.031-1.2246-53.418-0.30852-1.4148,0.54292-1.5818,6.1968-1.5818,53.566,0,34.593,0.35899,53.63,1.0352,54.893,0.91024,1.7008,2.1647,1.9343,10.393,1.9343,7.6106,0,9.4712-0.29534,9.9648-1.5818zm1.83-60.259c-0.96612-0.61311-1.2096-4.5652-1-16.235l0.27699-15.424,15,0.0281c22.467,0.0421,26.675,2.2443,27.273,14.271,0.55685,11.2-3.4777,15.57-15.858,17.177-9.0837,1.179-23.956,1.2851-25.692,0.18321zm-44.721,59.591c0.24147-0.6875,0.11485-25.1-0.28138-54.25l-0.72041-53h-12.497-12.497l-7.703,19.166c-4.2367,10.541-10.611,26.966-14.165,36.5-3.5539,9.534-6.814,17.334-7.2448,17.334-1.3486,0-14.565-31.712-23.92-57.396-2.8841-7.9178-5.9485-14.79-6.8098-15.272-0.86128-0.48199-5.0754-0.52877-9.3647-0.10395l-7.7988,0.7724,0.11634,22.5c0.12355,23.894,1.8978,43.894,5.4324,61.239,1.1362,5.5756,2.32,10.549,2.6307,11.051,0.86721,1.4032,6.9534,3.7098,9.7885,3.7098,3.0305,0,2.9996,0.83924,0.60744-16.527-2.127-15.441-4.5707-45.486-3.8705-47.587,0.24569-0.73705,1.71,2.0247,3.254,6.1372,9.9724,26.561,21.106,52.542,23.573,55.009,2.2206,2.2206,13.881,3.4844,15.667,1.6981,0.70569-0.70569,2.8689-5.9961,4.8071-11.756,6.2691-18.632,18.918-51.973,19.717-51.973,0.42739,0,0.7986,8.6625,0.82492,19.25,0.0716,28.801,1.4542,52.82,3.1006,53.863,2.2034,1.3963,16.843,1.0902,17.353-0.36288zm135.28-3.4168c1.8024-0.31124,3.6515-1.301,4.109-2.1995,0.45756-0.8985,1.3585-7.2586,2.0022-14.134,1.8935-20.226,2.0379-20.999,3.923-21.008,6.2806-0.0282,18.899-2.2425,23.115-4.0561,10.404-4.4755,16.701-15.277,17.774-30.486,1.0742-15.221-3.1822-24.442-13.52-29.288-5.5732-2.6126-6.0683-2.6629-26.181-2.6629h-20.5l-0.20545,15c-0.30433,22.219-2.2542,67.585-3.3861,78.78-0.54386,5.3792-0.69254,10.26-0.33041,10.846,0.61976,1.0028,3.962,0.80196,13.199-0.79312zm9.7888-53.101c-0.92504-0.92504-0.61164-32.612,0.33737-34.11,1.2939-2.0428,17.929-1.1175,21.456,1.1935,4.5589,2.9871,5.9229,6.1402,5.8763,13.584-0.0619,9.8927-3.6795,15.653-11.236,17.89-4.1822,1.2382-15.633,2.2434-16.434,1.4427zm36.419-81.983c-0.0192-4.6878-0.78772-5.9115-4.2605-6.7831-4.5589-1.1442-6.2718-4.4951-8.1508-15.945-4.4585-27.169-10.852-42.521-17.708-42.521-2.3261,0-2.3213,0.71808,0.0595,8.8922,2.3888,8.2014,4.6066,19.427,6.5409,33.108,1.9112,13.517,3.0147,17.229,6.2734,21.101,3.3026,3.9249,7.4852,5.8085,13.011,5.8594l4.25,0.0391-0.0153-3.75zm-249.98-1.1694c10.321-5.2767,14.418-11.863,14.467-23.254,0.0266-6.2226-0.35691-8.1958-2.029-10.438-3.3214-4.4544-6.495-6.2683-13.938-7.9666-12.44-2.8383-13.38-3.8259-9.5809-10.057,2.7121-4.4478,9.3204-6.8025,17.109-6.0962,6.6509,0.60308,7.7876,0.005,9.9599-5.2393,1.8578-4.4851,0.34866-5.5437-7.7884-5.4634-5.1138,0.0505-8.1862,0.73706-12.981,2.9009-8.2892,3.7405-16.516,12.43-18.686,19.737-2.0606,6.9387-1.955,8.1401,1.0263,11.683,2.1093,2.5068,3.9905,3.3482,10.717,4.7936,9.304,1.9993,11.725,3.8169,11.725,8.8036,0,7.5386-8.5096,12.376-18.25,10.374-11.146-2.2909-10.072-2.522-11.961,2.5735-0.94018,2.5368-1.4673,5.2433-1.1713,6.0145,1.9151,4.9907,22.701,6.0734,31.382,1.6347zm202.36-1.6994c2.8704-1.8995,4.1661-2.3066,4.4671-1.4034,1.0497,3.1492,4.328,5.1328,7.981,4.8291l3.693-0.30697-0.25276-7.5c-1.2629-37.472-5.8336-46.913-24.285-50.164-6.7268-1.1849-15.802-0.40487-18.535,1.5931-1.6562,1.211-1.6805,1.6164-0.31136,5.192l1.485,3.8784,10.129-0.36549c9.7745-0.35268,10.22-0.27543,12.7,2.2045,1.5822,1.5822,2.57,3.6883,2.57,5.4792v2.9092l-9.371,0.49017c-15.079,0.78871-21.655,5.8968-21.606,16.782,0.0377,8.3187,6.0963,17.114,12.804,18.588,1.4701,0.32295,3.1229,0.76284,3.6729,0.97753,2.7485,1.0729,11.145-0.72639,14.859-3.184zm-14.359-10.381c-2.6406-2.6406-2.6431-8.108-0.005-10.496,2.5909-2.3448,12.688-4.0119,14.615-2.413,0.83372,0.69193,1.39,3.0765,1.39,5.9585,0,3.9998-0.44151,5.1523-2.6349,6.8776-3.5494,2.792-10.607,2.8303-13.365,0.0726zm-126.75,10.21c5.931-2.6236,11.445-8.3352,14.6-15.124,2.1804-4.6911,2.6003-7.0289,2.6198-14.586,0.0199-7.6876-0.36504-9.8284-2.6397-14.681-4.945-10.549-15.515-15.322-28.621-12.924-11.44,2.0935-18.088,7.2136-22.858,17.604-2.2967,5.0031-2.763,7.4123-2.8065,14.5-0.0452,7.3668,0.32479,9.2676,2.7754,14.258,4.8594,9.896,12.762,14.051,25.34,13.323,4.0826-0.23622,9.0705-1.2566,11.589-2.3708zm-20.733-12.596c-7.273-7.273-4.9198-27.773,3.6998-32.231,7.1294-3.6868,15.089-1.0855,17.47,5.7094,2.9489,8.4159,0.50089,21.882-4.7867,26.331-4.2837,3.6045-12.869,3.704-16.383,0.19zm90.519,11.762c3.269-1.9376,3.4425-2.314,3.1929-6.9268-0.14516-2.6828-0.64392-5.2578-1.1084-5.7223-0.46443-0.46443-3.7033,0.11867-7.1975,1.2958-10.006,3.3706-17.677,1.2354-21.395-5.9554-2.2292-4.3107-2.916-12.312-1.5467-18.02,2.2616-9.4276,9.3423-13.598,18.899-11.132,2.537,0.6548,5.6262,1.4441,6.8648,1.754,1.8728,0.46858,2.5136-0.0623,3.8044-3.1516,0.85375-2.0433,1.4136-4.4585,1.2441-5.367-0.46504-2.4929-9.2594-5.058-17.513-5.1081-12.966-0.0787-22.851,5.6259-27.649,15.956-3.1154,6.7078-2.969,21.479,0.2853,28.788,2.8663,6.4369,9.6572,12.688,15.985,14.715,6.822,2.1851,21.624,1.5474,26.134-1.126zm28.902,1.678c1.2469-0.78888,1.2964-4.662,0.35993-28.168-1.2484-31.334-0.8485-30.182-10.305-29.679l-5.5008,0.29247,0.33007,27c0.18155,14.85,0.54151,27.763,0.79992,28.695,0.4438,1.601,1.5818,1.8748,10.87,2.615,1.1,0.0877,2.6506-0.2522,3.4457-0.75526zm-3.5275-63.662c1.9215-0.73734,2.2073-8.3675,0.38179-10.193-0.67937-0.67937-3.9333-1.2-7.5-1.2h-6.3l0.0153,4.25c0.0202,5.5954,0.74814,6.5233,5.4977,7.0074,2.1929,0.22352,4.5127,0.48204,5.1552,0.5745,0.64252,0.0925,1.88-0.10505,2.75-0.43889z"/>
   <path id="path2832" fill="#0097d9" d="m352.94,617.68c-11.144-4.01-18.822-11.885-24.323-24.949-1.5242-3.619-3.3624-6.6951-4.085-6.8358-0.72577-0.14135-2.4327,2.0768-3.8138,4.956-5.0368,10.5-16.677,14.726-31.68,11.501-27.292-5.8675-46.055-28.436-44.004-52.929,0.30989-3.7004,0.14954-6.9839-0.35633-7.2965-0.50587-0.31264-3.059,0.15785-5.6736,1.0455-13.421,4.5564-30.469-8.075-42.139-31.222-5.3883-10.687-7.5609-20.268-7.5508-33.299,0.009-11.663,0.76643-15.018,6.4969-28.775,0.91465-2.1958,1.0417-3.7123,0.3855-4.6008-0.53836-0.72895-2.4267-3.2398-4.1963-5.5797-5.8441-7.7274-7.5598-13.945-8.0152-29.044-0.35996-11.935-0.11983-14.615,2.0719-23.119,4.4603-17.306,12.388-31.14,22.414-39.11,5.161-4.1029,13.697-7.7708,18.084-7.7708,4.0966,0,5.1602-1.7338,5.1836-8.45,0.0581-16.655,14.309-38.053,30.423-45.68,17.535-8.2996,32.242-5.4451,48.061,9.3277,4.18,3.9037,7.9521,6.6937,8.3824,6.2,0.4303-0.49371,1.5641-3.0225,2.5196-5.6196,6.1699-16.77,29.765-27.005,51.593-22.382,19.687,4.1702,33.87,17.409,39.482,36.853,1.8875,6.5394,3.6605,7.3084,6.0769,2.6356,6.6953-12.947,21.647-19.026,38.193-15.526,18.637,3.9417,34.675,18.483,40.333,36.568,2.8818,9.211,3.5088,22.478,1.5833,33.506-0.85787,4.9136-1.3328,9.3012-1.0554,9.75,0.2774,0.44886,1.7325,0.8161,3.2335,0.8161,8.762,0,17.706,9.9877,22.465,25.086,4.5898,14.561,5.9706,25.533,5.4012,42.914-0.70758,21.598-4.5091,35.142-13.178,46.951-4.4532,6.0665-10.078,9.9318-18.404,12.647-6.2675,2.044-6.6179,2.3206-6.3753,5.0322,1.9505,21.796,1.2904,27.027-5.0048,39.664-5.4854,11.011-15.277,20.917-25.789,26.09-6.4809,3.1895-8.5138,3.7125-14.503,3.7314-8.0328,0.0254-11.242-0.98387-16.585-5.216-2.1111-1.672-4.2381-2.7929-4.7268-2.4909-0.48868,0.30202-1.1046,2.7977-1.3686,5.546-1.5528,16.16-19.973,34.03-40.778,39.559-7.932,2.1081-22.241,1.8665-28.778-0.48589zm10.743-75.963c0.61746-1.1538,1.0352-10.246,1.0352-22.532v-20.597l11.75,0.28173,11.75,0.28174,2.4791,5c1.3635,2.75,5.6771,12.2,9.5859,21l7.1068,16,6.0374,0.29443c8.5405,0.41649,15.693-0.92632,16.096-3.0221,0.36841-1.913-7.5756-20.424-15.083-35.145-4.3783-8.5859-4.8249-9.9904-3.426-10.773,5.6723-3.1744,10.49-8.0403,13.193-13.326,2.7582-5.3933,3.0104-6.7299,3.0104-15.957,0-9.0289-0.2925-10.666-2.8276-15.829-6.6815-13.607-17.964-16.662-61.731-16.718-13.864-0.0177-19.017,0.31167-20.372,1.3018-1.7205,1.2581-1.7922,4.0851-1.4092,55.556,0.34441,46.288,0.61855,54.367,1.8716,55.159,0.80747,0.51068,5.6148,0.9354,10.683,0.94382,8.096,0.0134,9.3405-0.21954,10.25-1.919zm1.0352-76.566,0-15.5,13.75,0.006c14.988,0.006,19.858,0.89304,23.874,4.3477,5.1078,4.3935,4.8112,16.945-0.51487,21.792-3.8942,3.5434-10.687,4.8542-25.159,4.8542h-11.951v-15.5zm-43.869,23.5c-0.20442-29.657-0.77719-54.28-1.2852-55.25-0.79416-1.5166-2.4961-1.75-12.759-1.75-8.2788,0-12.141,0.37615-12.833,1.25-1.3532,1.7072-9.8484,22.776-19.858,49.25-4.575,12.1-8.651,22-9.0578,22-1.4063,0-11.033-23.471-26.658-65l-2.2576-6-8.8099-0.29038c-6.0949-0.20088-9.2886,0.10688-10.363,0.99866-1.3543,1.1239-1.47,4.0429-0.90327,22.79,0.98961,32.739,5.2846,66.644,9.2096,72.702,2.0384,3.1459,11.521,5.6035,12.915,3.3472,0.32374-0.52383-0.30025-7.1613-1.3867-14.75-2.0339-14.207-4.1253-36.575-4.03-43.102,0.046-3.148,0.71173-1.9918,4.4939,7.8045,6.723,17.413,18.692,45.074,20.435,47.227,1.084,1.3386,3.5947,2.1625,8.4104,2.7597,3.7758,0.46826,7.4102,0.64221,8.0765,0.38654,0.66625-0.25566,4.8498-10.682,9.2967-23.169,4.447-12.487,9.5812-26.529,11.41-31.204l3.3241-8.5,0.7509,26.5c0.413,14.575,1.088,30.547,1.5,35.493,0.74612,8.9567,0.76105,8.9952,3.7491,9.6513,1.65,0.36231,6.15,0.59065,10,0.50743l7-0.15133-0.36878-53.5zm132.09,49.448c3.146-0.369,6.2373-1.2941,6.8695-2.0558,0.63217-0.76173,1.826-8.6991,2.653-17.639,0.82697-8.9395,1.6591-16.816,1.8491-17.504,0.23399-0.84642,2.5817-1.25,7.2716-1.25,16.666,0,28.477-7.6589,33.201-21.53,3.3545-9.8486,3.4162-23.842,0.13657-30.957-5.8412-12.673-13.471-15.512-41.685-15.512-11.202,0-16.482,0.36594-17.316,1.2-0.86342,0.86342-1.2,7.6191-1.2,24.086,0,23.624-1.3508,55.458-3.0217,71.214-0.84554,7.973-0.7621,9.1432,0.73115,10.255,0.92709,0.69008,2.3842,1.0543,3.2381,0.80941,0.85385-0.2449,4.1265-0.74718,7.2725-1.1162zm12.651-55.082c-0.2148-0.47647-0.24274-8.1788-0.0621-17.116l0.32846-16.25,8.1812,0.002c12.966,0.002,18.742,4.496,18.636,14.498-0.0847,8.0053-3.769,14.638-9.4729,17.055-3.7924,1.6065-17.086,2.9741-17.61,1.8117zm36.928-79.923c0.47655-4.8726-1.2339-8.0807-4.6753-8.769-4.3494-0.86987-5.7123-3.7102-8.0174-16.708-4.2595-24.018-9.2537-37.207-15.318-40.455-5.9406-3.1808-6.5526-1.4759-3.4706,9.6679,2.7638,9.9934,5.1716,21.938,6.2127,30.82,2.4515,20.914,8.469,29.361,20.47,28.735,4.2262-0.22062,4.5182-0.42084,4.7989-3.2912zm-251.3-1.3122c8.8771-3.9662,13.58-9.7439,15.601-19.166,1.5628-7.287,0.41453-13.309-3.3565-17.604-3.6485-4.1554-5.6448-5.0848-15.744-7.3296-6.3908-1.4205-7.5484-1.9984-7.8271-3.9073-0.86865-5.9487,6.4744-10.4,16.659-10.1,3.6672,0.10828,7.1677,0.14696,7.7788,0.086,0.61107-0.061,2.1632-2.0943,3.4492-4.5184,3.2832-6.189,1.9624-7.5925-7.1452-7.5925-9.3434,0-16.451,2.8096-23.572,9.3176-6.6298,6.0592-10.319,13.108-10.333,19.744-0.0127,5.9354,2.3331,8.4412,9.758,10.423,13.975,3.7305,13.7,3.5685,14.041,8.2838,0.26019,3.6012-0.14624,4.7232-2.5995,7.1765-4.0422,4.0422-9.0759,4.7899-17.55,2.6068-3.7656-0.97004-7.1928-1.3785-7.616-0.90773-1.1908,1.3246-3.0425,7.3925-3.0425,9.97,0,4.263,6.4612,6.431,18,6.0397,6.1592-0.20886,9.8769-0.90345,13.5-2.5222zm202.85-1.908,3.5202-2.077,1.5282,2.3323c1.0136,1.547,2.9478,2.5721,5.7443,3.0446,7.3314,1.2386,7.4765,0.25759,4.2164-28.513-0.84071-7.4195-2.1884-15.07-2.9948-17-3.2544-7.7909-10.561-12.63-20.959-13.882-5.9977-0.72206-17.362,0.11136-19.495,1.4297-1.4207,0.87804-1.0768,3.1876,1.114,7.482,2.2372,4.3853,2.2669,4.3937,10.269,2.9144,8.1709-1.5105,13.398,0.053,15.286,4.5725,0.7834,1.8749,1.4244,3.5818,1.4244,3.7931,0,0.21125-4.0944,0.64936-9.0987,0.97357-14.536,0.94178-21.23,5.3204-22.499,14.717-0.8098,5.9993,0.98847,12.227,4.7766,16.541,3.8517,4.3869,5.8441,5.4672,11.692,6.34,5.8432,0.872,10.974-0.0125,15.474-2.6678zm-12-10.19c-2.7629-1.1634-3.4669-2.3703-3.5737-6.126-0.13854-4.8728,2.946-7.1515,9.877-7.2964l5.8444-0.12218,0.30032,5.194c0.26169,4.526-0.002,5.3922-2.0523,6.7354-3.09,2.0246-7.7163,2.7434-10.396,1.6151zm-127.6,8.8275c11.06-5.307,16.614-15.463,16.61-30.372-0.004-17.25-9.3727-27.567-25.077-27.617-8.1607-0.0258-11.235,0.62809-17.376,3.6954-18.7,9.3406-22.289,42.201-5.8015,53.112,9.0843,6.0117,20.677,6.4445,31.645,1.1816zm-19.253-11.244c-4.2905-1.9871-5.7823-5.155-6.1822-13.128-0.63212-12.603,3.7216-20.095,12.269-21.112,8.7057-1.0365,12.749,4.658,12.15,17.112-0.41844,8.7014-2.252,13.481-6.1515,16.036-3.4049,2.231-8.6095,2.701-12.085,1.0913zm84.154,12.882c6.9883-2.0753,8.5119-4.017,7.7148-9.832-0.88063-6.4249-1.808-6.8952-8.8815-4.5038-14.383,4.8627-23.444-1.5815-23.444-16.674,0-14.633,8.4107-20.631,22.296-15.9,2.5828,0.88006,5.293,1.371,6.0227,1.091,0.72964-0.27999,1.9227-2.6379,2.6512-5.2399,1.2228-4.3675,1.1772-4.8387-0.59455-6.1351-6.42-4.6978-22.667-5.5257-31.508-1.6057-12.276,5.4432-18.438,18.97-15.894,34.894,1.6958,10.616,6.4838,17.63,14.983,21.951,7.1902,3.6552,18.208,4.4631,26.654,1.9546zm33.987-1.0185c0.92378-2.4074-1.6259-54.768-2.7318-56.1-1.6119-1.9422-12.837-2.8924-14.502-1.2276-1.1535,1.1535-1.2441,5.9818-0.5433,28.967,0.46254,15.171,1.1588,28.097,1.5473,28.726,1.134,1.8349,15.51,1.5111,16.23-0.36562zm-2.8368-67.187c0.46574-6.4099-2.119-8.4829-10.101-8.1013l-6.2035,0.29651-0.30563,4.2118c-0.1681,2.3165,0.1955,5.1482,0.808,6.2926,0.99477,1.8588,1.8813,2.0496,8.3056,1.7882l7.192-0.29264,0.30482-4.1952z"/>
  </g>
 </g>
</svg>