<?xml version="1.0" encoding="UTF-8" standalone="no"?>
<svg id="svg2" xmlns:rdf="http://www.w3.org/1999/02/22-rdf-syntax-ns#" xmlns="http://www.w3.org/2000/svg" viewBox="0 0 288 288" version="1.1" xmlns:cc="http://creativecommons.org/ns#" xmlns:dc="http://purl.org/dc/elements/1.1/">
 <defs id="defs4"></defs>
 <metadata id="metadata7">
  <rdf:RDF>
   <cc:Work rdf:about="">
    <dc:format>image/svg+xml</dc:format>
    <dc:type rdf:resource="http://purl.org/dc/dcmitype/StillImage"/>
    <dc:title/>
   </cc:Work>
  </rdf:RDF>
 </metadata>
 <g id="layer1" transform="translate(-221.71428,-79.790749)">
  <g id="g2830" transform="matrix(2,0,0,2,-369.42857,-149.48974)">
   <path id="path2832" fill="#0097d9" d="m318.64,403.86c-11.535-2.7902-20.538-11.956-24.87-25.32-0.97418-3.0051-3.0326-1.9272-5.6301,2.9482-1.781,3.343-3.7942,5.3815-7,7.0884-4.0023,2.1309-5.4401,2.3452-13,1.937-6.7106-0.36237-9.9244-1.1067-15.266-3.5359-9.0296-4.1062-17.768-12.481-22.007-21.09-2.8118-5.7111-3.2555-7.7004-3.4493-15.465-0.12235-4.9008-0.43688-9.125-0.69896-9.3871-0.26208-0.26208-1.9166,0.0255-3.6768,0.63911-7.8321,2.7303-15.12-0.0459-24.122-9.1886-6.2469-6.3447-13.51-19.733-15.672-28.889-2.0301-8.5978-1.3652-22.446,1.455-30.307,1.3813-3.85,2.7789-7.8135,3.1059-8.8078,0.37913-1.1528-0.31912-2.7832-1.9272-4.5-6.2941-6.7197-9.244-17.384-8.4551-30.567,1.6019-26.768,15.809-48.359,33.845-51.434l4.3683-0.74482,0.69781-6.3001c0.8776-7.9233,2.2532-12.249,6.029-18.957,4.3056-7.6494,12.054-14.952,19.711-18.578,13.05-6.1795,25.409-3.6656,37.637,7.656,3.3206,3.0743,6.4833,5.2843,7.0281,4.9111,0.54483-0.37323,2.218-3.2212,3.7182-6.3287,4.618-9.5661,15.181-15.662,28.749-16.592,19.762-1.3546,36.11,9.2355,42.486,27.522,2.6127,7.4937,4.584,8.782,6.8204,4.4573,2.3251-4.4962,9.0731-10.012,13.816-11.292,7.0638-1.9075,19.339-0.75106,26.054,2.4547,18.301,8.7363,27.89,28.248,24.904,50.675-1.6125,12.111-1.741,11.584,2.9759,12.217,16.053,2.1531,26.341,40.324,19.332,71.726-3.6838,16.504-11.618,27.421-22.268,30.638-3.1306,0.94559-6.0716,2.0374-6.5355,2.4264-0.46394,0.38891-0.36163,3.813,0.22736,7.6092,2.2424,14.452-2.5782,28.208-13.795,39.364-7.9016,7.8589-14.287,11.135-22.887,11.742-5.73,0.40423-6.7581,0.15836-11.398-2.7256-5.9324-3.6878-7.8006-3.413-7.8141,1.1494-0.0257,8.6283-9.9966,21.312-21.623,27.506-9.8385,5.2417-22.342,7.4067-30.867,5.3446zm5.5-79.57,0.5-18,9.4149,0,9.4149,0,7.4017,16.478c4.071,9.0628,7.8875,17.063,8.4811,17.778,1.3611,1.64,15.62,0.63221,17.622-1.2455,1.1025-1.0339,0.17604-3.8094-5.3236-15.949-3.6621-8.0834-7.5104-16.141-8.5516-17.906l-1.8932-3.2088,4.6684-3.4736c7.0853-5.2719,9.7683-11.309,9.7533-21.947-0.0136-9.6408-1.9918-14.748-7.5106-19.392-6.1734-5.1945-12.059-6.1327-38.477-6.1336l-24-0.00081-0.2605,44.385c-0.19154,32.636,0.0478,44.756,0.90395,45.788,0.86385,1.0409,3.2544,1.3287,9.2605,1.1151l8.0961-0.28795,0.5-18zm0.43162-34.818c-0.27809-0.72469-0.37647-6.0122-0.21862-11.75l0.287-10.432,12.56-0.27846c11.713-0.25967,12.792-0.12251,16,2.0336,4.3583,2.9292,5.813,7.8879,4.0451,13.789-1.8525,6.1831-6.3877,7.9058-20.886,7.9341-8.4274,0.0164-11.409-0.31137-11.787-1.2956zm-35.212,51.068c0.23848-0.6875,0.0499-20.806-0.41903-44.707-0.63569-32.4-1.164-43.655-2.0766-44.235-0.6732-0.42769-4.8866-0.78452-9.3632-0.79294-6.3343-0.0119-8.5852,0.37275-10.151,1.7347-1.6573,1.442-11.57,25.497-21.943,53.25l-2.0557,5.5-2.1992-5c-4.6089-10.479-13.294-32.399-16.614-41.934-1.9027-5.4638-3.9508-10.526-4.5514-11.25-1.6241-1.9569-14.216-1.7807-15.879,0.22217-2.8458,3.4289,0.37617,52.875,4.6789,71.805,1.4188,6.2424,1.8511,6.9669,4.9219,8.25,3.9508,1.6507,7.0633,1.8101,7.9311,0.40599,0.34013-0.55033-0.0741-5.8378-0.92059-11.75-1.8124-12.659-3.723-34.44-3.0776-35.085,0.24791-0.24791,0.75601,0.40116,1.1291,1.4424,7.2272,20.168,18.092,44.195,20.252,44.784,4.0308,1.0995,10.737,1.5279,11.926,0.7617,1.0756-0.69323,7.2329-16.718,16.89-43.957,0.83928-2.3673,1.6719-4.1583,1.8502-3.98,0.17833,0.17833,0.78649,12.175,1.3515,26.658,0.66501,17.048,1.4358,26.826,2.1858,27.73,1.5357,1.8504,15.498,1.9767,16.133,0.14592zm112.37-3.9338c0.77017-0.7824,1.8342-6.7839,2.6237-14.799l1.3281-13.483,8.7281-1.247c10.229-1.4614,15.365-3.811,19.624-8.977,4.5268-5.4918,6.5351-12.349,6.5346-22.311-0.00053-9.1371-1.3138-12.994-6.2056-18.223-3.8358-4.1007-10.039-5.5332-26.884-6.2078-12.436-0.49799-15.418-0.34901-16.596,0.82922-1.16,1.16-1.5576,7.5586-2.0669,33.269-0.34686,17.508-1.0927,36.333-1.6574,41.833-0.87039,8.4769-0.80267,10.166,0.44459,11.087,1.8698,1.3813,12.313,0.0723,14.127-1.7708zm5.1221-43.564c-0.22337-0.41343-0.19607-6.4892,0.0607-13.502l0.4668-12.75h7.3235c6.3,0,7.7156,0.3373,10.129,2.4134,2.5401,2.1849,2.8058,3.03,2.8058,8.9267,0,7.1196-1.991,11.135-6.5899,13.289-3.0255,1.4172-13.651,2.6318-14.196,1.6227zm29.277-62.741c0.78819-0.9497,0.99482-2.7735,0.57049-5.0354-0.55077-2.9359-1.1876-3.6508-3.6996-4.1532-3.7908-0.75816-4.2236-1.7925-7.3452-17.556-4.1966-21.192-8.266-29.766-14.127-29.766-2.9554,0-2.9537,0.32069,0.0638,12.216,1.3492,5.3186,3.149,14.66,3.9995,20.758,2.169,15.551,4.6164,20.785,11.047,23.623,4.0132,1.7715,7.9789,1.7353,9.4909-0.0865zm-205.94-2.0306c6.1463-2.1686,10.871-6.1078,13.031-10.864,2.3038-5.073,2.5036-14.573,0.39251-18.656-1.8069-3.4942-7.7722-6.7644-13.862-7.5991-5.9056-0.80945-7.0176-1.6315-6.2648-4.631,1.047-4.1714,5.254-6.1674,13.07-6.2006,6.6067-0.0281,7.0056-0.16626,8.7447-3.0294,3.7963-6.25,1.3739-8.2485-8.7338-7.2053-10.837,1.1185-21.121,9.3822-24,19.286-2.5532,8.7829,0.0642,11.954,11.876,14.389,6.9129,1.4248,8.8091,3.9257,6.5495,8.6383-2.4978,5.2093-7.9832,6.2944-19.111,3.7804-2.4565-0.55498-2.9189-0.2227-4.3044,3.0934-0.85375,2.0433-1.414,4.4585-1.2449,5.367,0.85822,4.6124,14.984,6.763,23.857,3.6322zm165.43-1.4718,3.9061-1.9914,2.1959,2.063c1.529,1.4365,3.2161,1.9653,5.5553,1.7414,3.2716-0.31311,3.3678-0.45224,3.6801-5.3215,0.36273-5.6552-1.4081-22.784-3.0355-29.362-1.3903-5.6195-6.9947-11.56-12.285-13.021-5.055-1.3965-18.012-1.4475-20.566-0.081-2.3349,1.2496-2.4389,3.0882-0.39804,7.0348l1.5362,2.9707,7.8311-0.65309c7.1397-0.59542,8.0194-0.46479,9.9638,1.4796,3.7827,3.7827,2.8003,4.7936-5.2508,5.4024-12.517,0.94669-17.616,5.119-17.616,14.415,0,2.9781,0.63224,6.63,1.405,8.1151,4.2609,8.1894,14.737,11.462,23.078,7.2089zm-8.6911-10.259c-5.1265-4.0299-1.7779-9.75,5.7079-9.75,3.218,0,4.5,0.40403,4.5,1.4182,0,0.78002,0.26547,2.11,0.58992,2.9555,0.80168,2.0891-3.8909,6.6263-6.8533,6.6263-1.2949,0-3.0699-0.5625-3.9445-1.25zm-104.28,8.8987c10.355-4.8223,14.918-13.402,14.349-26.985-0.31515-7.5222-0.69886-8.9788-3.3558-12.74-4.3891-6.2124-9.321-8.4398-18.5-8.3553-15.518,0.14279-24.822,9.3988-25.793,25.661-0.4116,6.8918-0.17017,8.3254,2.2274,13.226,4.1315,8.4445,9.1541,11.31,20.066,11.449,4.3087,0.0547,7.4114-0.5811,11.007-2.2556zm-16.482-11.623c-2.6394-2.6394-3.3466-5.9088-2.8282-13.075,0.5263-7.276,3.023-11.077,8.126-12.371,4.9356-1.2515,8.3798,0.46581,10.339,5.1552,2.7386,6.5544,0.10005,18.717-4.607,21.236-3.1963,1.7106-8.8596,1.2254-11.03-0.94492zm73.475,11.079c2.6111-1.5321,2.9884-2.3062,2.9108-5.9716-0.13-6.1375-1.239-6.7752-8.0541-4.6316-5.1127,1.6081-6.1773,1.652-9.7507,0.40199-5.3838-1.8833-7.941-6.325-7.9341-13.781,0.009-10.272,4.8704-15.153,13.597-13.653,9.2901,1.5964,10.139,1.3932,11.144-2.6686,1.1568-4.675-0.0197-6.212-5.8858-7.6891-10.198-2.5678-20.333-0.57822-26.395,5.1814-5.2027,4.9432-7.0842,9.9686-7.1096,18.99-0.0411,14.569,6.2228,23.096,18.978,25.836,5.11,1.0976,15.039,0.0168,18.5-2.0138zm23.755-21.496c-0.16238-15.174-0.62511-23.35-1.3724-24.25-0.71124-0.85699-3.2542-1.3585-6.8884-1.3585-4.6664,0-5.8375,0.33249-6.164,1.75-0.51854,2.2514,0.98424,44.324,1.6447,46.045,0.35413,0.92286,2.3194,1.2143,6.7622,1.0029l6.2629-0.29805-0.24499-22.892zm-1.4451-32.312c0.17045-1.7621-0.19446-4.1462-0.81092-5.2981-0.96943-1.8114-1.8893-2.054-6.8099-1.7962l-5.6891,0.29809-0.31453,3.8198c-0.45754,5.5566,1.0582,6.8273,7.7244,6.4753,5.4876-0.28972,5.5958-0.35386,5.9-3.4989z"/>
  </g>
 </g>
</svg>